<?xml version="1.0" standalone="no"?>
<!DOCTYPE svg PUBLIC "-//W3C//DTD SVG 1.1//EN" "http://www.w3.org/Graphics/SVG/1.1/DTD/svg11.dtd" >
<svg xmlns="http://www.w3.org/2000/svg" xmlns:xlink="http://www.w3.org/1999/xlink" version="1.1">
<metadata>
Created by FontForge 20161003 at Fri Jun  8 10:17:33 2018
 By www-data
Copyright (c) 2017 by Luis Bandovas. All rights reserved.
</metadata>
<defs>
<font id="AutorRegular" horiz-adv-x="0" >
  <font-face 
    font-family="AutorRegular"
    font-weight="400"
    font-stretch="normal"
    units-per-em="1000"
    panose-1="0 0 5 0 0 0 0 0 0 0"
    ascent="800"
    descent="-200"
    x-height="481"
    cap-height="634"
    bbox="-677 -206 1351 937"
    underline-thickness="50"
    underline-position="-150"
    unicode-range="U+0020-FB02"
  />
<missing-glyph horiz-adv-x="655" 
 />
    <glyph glyph-name="fi" unicode="fi" horiz-adv-x="583" 
d="M106 0v409h-80v15l80 45v95q0 70 44 112.5t115 42.5q42 0 62 -10l13 -70h-10q-18 10 -51 10q-92 0 -92 -86v-85h144l-14 -69h-130v-409h-81zM460 584q-25 0 -41 15t-16 39q0 23 16 38.5t41 15.5t41.5 -15.5t16.5 -38.5q0 -24 -16.5 -39t-41.5 -15zM420 0v481h81v-481h-81
z" />
    <glyph glyph-name="fl" unicode="fl" horiz-adv-x="583" 
d="M106 0v409h-80v15l80 45v95q0 70 44 112.5t115 42.5q42 0 62 -10l13 -70h-10q-18 10 -51 10q-92 0 -92 -86v-85h144l-14 -69h-130v-409h-81zM420 0v700l81 16v-716h-81z" />
    <glyph glyph-name=".notdef" horiz-adv-x="655" 
 />
    <glyph glyph-name=".null" 
 />
    <glyph glyph-name="nonmarkingreturn" horiz-adv-x="333" 
 />
    <glyph glyph-name="space" unicode=" " horiz-adv-x="248" 
 />
    <glyph glyph-name="exclam" unicode="!" horiz-adv-x="264" 
d="M98 190l-13 298v146h93v-146l-14 -298h-66zM90 0v99h81v-99h-81z" />
    <glyph glyph-name="quotedbl" unicode="&#x22;" horiz-adv-x="374" 
d="M72 498l-9 158v63h82v-63l-10 -158h-63zM238 498l-9 158v63h82v-63l-10 -158h-63z" />
    <glyph glyph-name="numbersign" unicode="#" horiz-adv-x="720" 
d="M92 0l64 211h-128v60h147l51 171h-133v60h152l66 216h68l-66 -216h176l66 216h68l-66 -216h135v-60h-153l-53 -171h140v-60h-157l-64 -211h-70l66 211h-175l-66 -211h-68zM243 271h175l52 171h-175z" />
    <glyph glyph-name="dollar" unicode="$" horiz-adv-x="496" 
d="M456 173q0 -72 -45 -120t-122 -60v-70h-80v67q-95 9 -154 51l-11 78h9q55 -47 156 -57v243q-30 13 -48.5 22t-42.5 25t-38 32t-23.5 39.5t-9.5 50.5q0 63 43.5 108t118.5 58v72h80v-68q87 -4 135 -35l10 -75h-10q-49 33 -135 38v-213q37 -16 62 -29.5t51.5 -35.5
t40 -52.5t13.5 -68.5zM130 481q0 -50 79 -88v173q-79 -20 -79 -85zM289 67q84 23 84 98q0 61 -84 105v-203z" />
    <glyph glyph-name="percent" unicode="%" horiz-adv-x="760" 
d="M169 312q-60 0 -97.5 46.5t-37.5 119.5q0 72 37.5 118t97.5 46q58 0 95.5 -46t37.5 -118q0 -73 -37.5 -119.5t-95.5 -46.5zM575 634h68l-439 -634h-67zM169 367q35 0 55.5 30t20.5 81t-20.5 81t-55.5 30q-36 0 -56 -29.5t-20 -81.5t20 -81.5t56 -29.5zM590 -8
q-58 0 -95.5 46.5t-37.5 119.5q0 72 37.5 118t95.5 46q59 0 96.5 -46t37.5 -118q0 -73 -37.5 -119.5t-96.5 -46.5zM590 47q36 0 56.5 30t20.5 81t-20.5 80.5t-56.5 29.5q-35 0 -55.5 -29.5t-20.5 -80.5t20.5 -81t55.5 -30z" />
    <glyph glyph-name="ampersand" unicode="&#x26;" horiz-adv-x="655" 
d="M527 114l111 -105v-9h-80l-73 69q-89 -81 -213 -81q-98 0 -157.5 49t-59.5 127q0 113 135 182q-50 44 -74 77t-24 74q0 63 48 105t121 42q72 0 119 -42t47 -102q0 -88 -131 -168l182 -172q38 55 47 119h69q-14 -94 -67 -165zM259 581q-40 0 -66 -24.5t-26 -62.5
q0 -46 73 -109l13 -12q39 19 69 51.5t30 71.5q0 36 -27.5 60.5t-65.5 24.5zM283 54q87 0 155 59l-203 191q-98 -55 -98 -135q0 -51 39.5 -83t106.5 -32z" />
    <glyph glyph-name="quotesingle" unicode="'" horiz-adv-x="208" 
d="M72 498l-9 158v63h82v-63l-10 -158h-63z" />
    <glyph glyph-name="parenleft" unicode="(" horiz-adv-x="286" 
d="M190 -83q-139 174 -139 402q0 120 38 222t105 167h76q-67 -70 -103.5 -172t-36.5 -216q0 -222 139 -403h-79z" />
    <glyph glyph-name="parenright" unicode=")" horiz-adv-x="286" 
d="M96 -83h-79q139 181 139 403q0 114 -36.5 216t-103.5 172h76q67 -65 105 -167t38 -222q0 -228 -139 -402z" />
    <glyph glyph-name="asterisk" unicode="*" horiz-adv-x="384" 
d="M221 708l-7 -125l103 48l24 -50l-114 -43l83 -93l-42 -34l-76 99l-75 -97l-41 34l81 91l-115 43l23 50l105 -48l-7 125h58z" />
    <glyph glyph-name="plus" unicode="+" horiz-adv-x="497" 
d="M462 278v-64h-179v-182h-67v182h-182v64h182v180h67v-180h179z" />
    <glyph glyph-name="comma" unicode="," horiz-adv-x="224" 
d="M104 -122l-43 16v8q13 41 13 151v46h78v-46q0 -52 -14.5 -100t-33.5 -75z" />
    <glyph glyph-name="hyphen" unicode="-" horiz-adv-x="447" 
d="M69 249v74h309v-74h-309z" />
    <glyph glyph-name="period" unicode="." horiz-adv-x="217" 
d="M68 0v99h81v-99h-81z" />
    <glyph glyph-name="slash" unicode="/" horiz-adv-x="410" 
d="M29 0l275 708h79l-276 -708h-78z" />
    <glyph glyph-name="zero" unicode="0" horiz-adv-x="593" 
d="M296 -11q-111 0 -176.5 88.5t-65.5 241.5q0 150 65 237.5t177 87.5q114 0 178.5 -87t64.5 -238q0 -153 -65.5 -241.5t-177.5 -88.5zM296 60q76 0 118 68t42 191q0 122 -41.5 188t-118.5 66q-78 0 -118.5 -66t-40.5 -190q0 -122 41.5 -189.5t117.5 -67.5z" />
    <glyph glyph-name="one" unicode="1" horiz-adv-x="343" 
d="M23 575l228 72v-647h-80v548l-148 -48v75z" />
    <glyph glyph-name="two" unicode="2" horiz-adv-x="492" 
d="M227 644q91 0 145.5 -47t54.5 -128q0 -51 -24.5 -100t-85.5 -122l-150 -178h284v-69h-415l-5 13l220 263q92 109 92 185q0 54 -34 82.5t-96 28.5q-52 0 -94 -17.5t-66 -39.5h-9l15 74q60 55 168 55z" />
    <glyph glyph-name="three" unicode="3" horiz-adv-x="499" 
d="M251 376q93 -2 146 -54.5t53 -136.5q0 -91 -62.5 -143.5t-164.5 -52.5q-50 0 -96.5 14t-71.5 32l-15 75h9q28 -21 75.5 -36t94.5 -15q68 0 109.5 32t42.5 93q0 57 -37.5 93t-112.5 36q-41 0 -78 -11l-22 43l192 220h-258l15 69h378v-10l-216 -249q6 1 19 1z" />
    <glyph glyph-name="four" unicode="4" horiz-adv-x="558" 
d="M366 634h68v-440h91l-13 -63h-78v-131h-80v131h-335v28zM354 516l-233 -322h233v322z" />
    <glyph glyph-name="five" unicode="5" horiz-adv-x="494" 
d="M98 634h303l14 -69h-250l-26 -200q43 26 111 26q94 0 147.5 -55t53.5 -145q0 -91 -60.5 -146.5t-161.5 -55.5q-50 0 -95.5 14.5t-69.5 32.5l-14 75h9q28 -21 73.5 -36.5t90.5 -15.5q69 0 109 34.5t40 95.5q0 62 -38.5 97.5t-109.5 35.5q-67 0 -117 -28l-49 24z" />
    <glyph glyph-name="six" unicode="6" horiz-adv-x="526" 
d="M288 396q90 0 147 -56.5t57 -143.5q0 -90 -62 -148.5t-161 -58.5t-162.5 57t-63.5 147q0 77 66 180l173 261h90l-184 -267q39 29 100 29zM269 59q64 0 104.5 38t40.5 98q0 59 -40.5 96.5t-104.5 37.5t-104.5 -37.5t-40.5 -96.5q0 -60 40.5 -98t104.5 -38z" />
    <glyph glyph-name="seven" unicode="7" horiz-adv-x="467" 
d="M36 634h418v-10l-298 -624h-87l275 564h-322z" />
    <glyph glyph-name="eight" unicode="8" horiz-adv-x="545" 
d="M273 645q87 0 142 -46t55 -117q0 -96 -106 -139q61 -21 96 -66.5t35 -103.5q0 -80 -62.5 -132t-160.5 -52t-160 51.5t-62 131.5q0 59 35.5 104.5t93.5 66.5q-103 43 -103 138q0 72 55 118t142 46zM272 578q-52 0 -86 -30t-34 -75q0 -46 34.5 -75t85.5 -29t86 29.5
t35 74.5t-34.5 75t-86.5 30zM273 307q-61 0 -101.5 -37t-40.5 -91q0 -53 39.5 -87.5t102.5 -34.5q61 0 101 34.5t40 87.5q0 54 -40.5 91t-100.5 37z" />
    <glyph glyph-name="nine" unicode="9" horiz-adv-x="525" 
d="M256 645q99 0 162.5 -57t63.5 -147q0 -80 -66 -180l-173 -261h-90l180 264q-37 -25 -94 -25q-90 0 -148 56.5t-58 144.5q0 89 62 147t161 58zM256 576q-64 0 -104.5 -38t-40.5 -98q0 -59 40.5 -97t104.5 -38t104.5 38t40.5 97q0 60 -40.5 98t-104.5 38z" />
    <glyph glyph-name="colon" unicode=":" horiz-adv-x="222" 
d="M71 344v99h81v-99h-81zM69 0v99h81v-99h-81z" />
    <glyph glyph-name="semicolon" unicode=";" horiz-adv-x="236" 
d="M80 344v99h81v-99h-81zM113 -122l-43 16v8q13 41 13 151v46h78v-46q0 -52 -14.5 -100t-33.5 -75z" />
    <glyph glyph-name="less" unicode="&#x3c;" horiz-adv-x="525" 
d="M470 22l-439 193v54l439 199v-71l-341 -153l341 -152v-70z" />
    <glyph glyph-name="equal" unicode="=" horiz-adv-x="575" 
d="M71 316v64h436v-64h-436zM68 103v64h436v-64h-436z" />
    <glyph glyph-name="greater" unicode="&#x3e;" horiz-adv-x="525" 
d="M55 22v70l341 152l-341 153v71l439 -199v-54z" />
    <glyph glyph-name="question" unicode="?" horiz-adv-x="390" 
d="M121 190v46q0 39 15 70.5t30.5 47t43.5 37.5q23 19 33 28.5t21 28t11 39.5q0 39 -29.5 62t-77.5 23q-67 0 -124 -54h-9l9 68q15 21 52 38t87 17q77 0 125 -39t48 -107q0 -30 -13.5 -57t-27 -41t-39.5 -36q-25 -21 -38 -34t-26 -39.5t-13 -56.5v-41h-78zM119 0v99h81v-99
h-81z" />
    <glyph glyph-name="at" unicode="@" horiz-adv-x="923" 
d="M563 71v43q-15 -22 -47.5 -36.5t-71.5 -14.5q-77 0 -127.5 51.5t-50.5 136.5q0 90 57 145.5t151 55.5q46 0 88 -12.5t64 -30.5v-276h47q51 0 88.5 45t37.5 122q0 127 -91 208t-243 81q-154 0 -249 -88.5t-95 -240.5q0 -154 96.5 -242.5t264.5 -88.5q104 0 187 35h9
l-13 -64q-75 -35 -193 -35q-193 0 -309 107t-116 284q0 181 118 292.5t304 111.5q178 0 290.5 -102.5t112.5 -254.5q0 -105 -56.5 -168.5t-142.5 -63.5h-110zM557 168v206q-27 20 -82 20q-64 0 -101 -38t-37 -103q0 -61 33 -97t88 -36q36 0 63 15t36 33z" />
    <glyph glyph-name="A" unicode="A" horiz-adv-x="643" 
d="M281 634h75l277 -634h-94l-56 132h-321l-53 -132h-94zM319 529l-132 -328h270z" />
    <glyph glyph-name="B" unicode="B" horiz-adv-x="629" 
d="M97 0v634h251q92 0 145 -43.5t53 -118.5q0 -52 -26.5 -88.5t-71.5 -51.5q55 -11 88.5 -49.5t33.5 -102.5q0 -82 -56.5 -131t-152.5 -49h-264zM180 356h172q52 0 80.5 26.5t28.5 76.5q0 106 -121 106h-160v-209zM180 69h170q63 0 98 28.5t35 81.5t-33 82t-91 29h-179v-221
z" />
    <glyph glyph-name="C" unicode="C" horiz-adv-x="600" 
d="M383 644q106 0 159 -37l12 -85h-9q-21 17 -63.5 29.5t-90.5 12.5q-110 0 -179 -69t-69 -178q0 -110 70.5 -179t182.5 -69q103 0 158 47h10l-13 -86q-57 -41 -164 -41q-147 0 -241 91.5t-94 234.5t93.5 236t237.5 93z" />
    <glyph glyph-name="D" unicode="D" horiz-adv-x="695" 
d="M316 634q151 0 237.5 -83.5t86.5 -230.5q0 -149 -86.5 -234.5t-235.5 -85.5h-221v634h219zM307 76q116 0 178.5 62t62.5 181q0 117 -62.5 178t-181.5 61h-120v-482h123z" />
    <glyph glyph-name="E" unicode="E" horiz-adv-x="534" 
d="M97 634h374l11 -76h-298v-209h243v-72h-243v-201h305l-11 -76h-381v634z" />
    <glyph glyph-name="F" unicode="F" horiz-adv-x="507" 
d="M184 558v-231h243v-75h-243v-252h-87v634h372l11 -76h-296z" />
    <glyph glyph-name="G" unicode="G" horiz-adv-x="658" 
d="M520 276l80 15v-245q-30 -22 -87.5 -39.5t-123.5 -17.5q-149 0 -243 90.5t-94 236.5q0 144 93 236t241 92q109 0 169 -39l12 -85h-9q-24 18 -69.5 31t-97.5 13q-113 0 -181 -70t-68 -178q0 -111 69.5 -180t182.5 -69q80 0 126 30v179z" />
    <glyph glyph-name="H" unicode="H" horiz-adv-x="751" 
d="M567 634h87v-634h-87v281h-383v-281h-87v634h87v-275h383v275z" />
    <glyph glyph-name="I" unicode="I" horiz-adv-x="281" 
d="M97 0v634h87v-634h-87z" />
    <glyph glyph-name="J" unicode="J" horiz-adv-x="313" 
d="M10 -81l-10 71h9q11 -9 46 -9q74 0 74 85v568h88v-570q0 -75 -36 -116t-105 -41q-42 0 -66 12z" />
    <glyph glyph-name="K" unicode="K" horiz-adv-x="621" 
d="M605 0h-102l-215 311l-106 -105v-206h-85v634h85v-329l322 329h94v-8l-246 -259z" />
    <glyph glyph-name="L" unicode="L" horiz-adv-x="477" 
d="M184 76h278l-11 -76h-354v634h87v-558z" />
    <glyph glyph-name="M" unicode="M" horiz-adv-x="862" 
d="M97 634h79l256 -358l255 358h78v-634h-86v499l-237 -327h-22l-237 325v-497h-86v634z" />
    <glyph glyph-name="N" unicode="N" horiz-adv-x="749" 
d="M97 0v634h72l398 -504v504h85v-634h-70l-400 496v-496h-85z" />
    <glyph glyph-name="O" unicode="O" horiz-adv-x="741" 
d="M371 -11q-139 0 -229 92.5t-90 235.5t90 235t229 92q138 0 228 -92t90 -235t-90 -235.5t-228 -92.5zM371 68q102 0 166.5 69.5t64.5 179.5t-64.5 179t-166.5 69q-103 0 -167 -69t-64 -179t64.5 -179.5t166.5 -69.5z" />
    <glyph glyph-name="P" unicode="P" horiz-adv-x="608" 
d="M97 0v634h229q115 0 179.5 -58.5t64.5 -157.5q0 -101 -69 -158.5t-183 -57.5h-134v-202h-87zM184 277h128q79 0 122.5 36t43.5 105q0 67 -41 104.5t-118 37.5h-135v-283z" />
    <glyph glyph-name="Q" unicode="Q" horiz-adv-x="741" 
d="M714 -14h9l-16 -74q-39 -19 -88 -19q-61 0 -119.5 26t-94.5 72q-22 -2 -34 -2q-139 0 -229 92.5t-90 235.5t90 235t229 92q138 0 228 -92t90 -235q0 -106 -52 -186.5t-139 -116.5q55 -49 128 -49q46 0 88 21zM140 317q0 -110 64.5 -179.5t166.5 -69.5t166.5 69.5
t64.5 179.5t-64.5 179t-166.5 69q-103 0 -167 -69t-64 -179z" />
    <glyph glyph-name="R" unicode="R" horiz-adv-x="617" 
d="M565 0h-94l-146 233h-12h-129v-233h-87v634h233q111 0 169.5 -52.5t58.5 -143.5q0 -74 -38.5 -123t-107.5 -69zM184 560v-258h126q157 0 157 129t-138 129h-145z" />
    <glyph glyph-name="S" unicode="S" horiz-adv-x="520" 
d="M252 -11q-54 0 -105 14.5t-80 35.5l-10 84h9q27 -24 79 -41t104 -17q60 0 96.5 27t36.5 73q0 41 -33.5 70t-81 48.5t-95.5 40.5t-81.5 58.5t-33.5 90.5q0 75 61 123.5t162 48.5q100 0 158 -35l10 -80h-9q-61 40 -155 40q-64 0 -101 -24.5t-37 -64.5q0 -35 33.5 -60
t81 -43t95.5 -40.5t81.5 -64t33.5 -99.5q0 -84 -60 -134.5t-159 -50.5z" />
    <glyph glyph-name="T" unicode="T" horiz-adv-x="534" 
d="M525 634l-12 -76h-199v-558h-88v558h-210v76h509z" />
    <glyph glyph-name="U" unicode="U" horiz-adv-x="715" 
d="M357 -10q-126 0 -198.5 80t-72.5 216v348h88v-351q0 -101 47.5 -157t135.5 -56q89 0 136.5 56t47.5 157v351h87v-348q0 -136 -72.5 -216t-198.5 -80z" />
    <glyph glyph-name="V" unicode="V" horiz-adv-x="639" 
d="M12 634h97l214 -523l208 523h95l-265 -634h-81z" />
    <glyph glyph-name="W" unicode="W" horiz-adv-x="956" 
d="M15 634h91l169 -509l191 517h23l198 -515l160 507h89l-202 -634h-73l-183 474l-176 -474h-73z" />
    <glyph glyph-name="X" unicode="X" horiz-adv-x="587" 
d="M28 634h102l164 -242l160 242h100l-210 -305l230 -329h-102l-178 261l-177 -261h-100l224 325z" />
    <glyph glyph-name="Y" unicode="Y" horiz-adv-x="591" 
d="M15 634h99l182 -276l183 276h96l-235 -347v-287h-89v287z" />
    <glyph glyph-name="Z" unicode="Z" horiz-adv-x="556" 
d="M46 634h476l-354 -559h354v-75h-492l357 559h-352z" />
    <glyph glyph-name="bracketleft" unicode="[" horiz-adv-x="330" 
d="M91 -83v791h208v-64h-132v-662h132v-65h-208z" />
    <glyph glyph-name="backslash" unicode="\" horiz-adv-x="410" 
d="M381 0h-78l-276 708h79z" />
    <glyph glyph-name="bracketright" unicode="]" horiz-adv-x="330" 
d="M239 -83h-208v65h132v662h-132v64h208v-791z" />
    <glyph glyph-name="asciicircum" unicode="^" horiz-adv-x="509" 
d="M24 0l185 481h92l184 -481h-84l-147 395l-147 -395h-83z" />
    <glyph glyph-name="underscore" unicode="_" horiz-adv-x="421" 
d="M0 -95v67h421v-67h-421z" />
    <glyph glyph-name="grave" unicode="`" horiz-adv-x="210" 
d="M210 563h-77l-133 138v9h106z" />
    <glyph glyph-name="a" unicode="a" horiz-adv-x="515" 
d="M248 492q89 0 140.5 -46.5t51.5 -137.5v-308h-75v73q-17 -32 -60.5 -58.5t-103.5 -26.5q-71 0 -116 38.5t-45 101.5q0 68 50.5 110.5t137.5 42.5q75 0 131 -26v46q0 121 -125 121q-103 0 -157 -50h-8l13 68q20 21 64 36.5t102 15.5zM244 219q-60 0 -91 -22.5t-31 -60.5
q0 -37 27.5 -58.5t74.5 -21.5q50 0 86.5 22.5t48.5 50.5v68q-44 22 -115 22z" />
    <glyph glyph-name="b" unicode="b" horiz-adv-x="584" 
d="M269 -11q-55 0 -107.5 14t-83.5 32v665l82 16v-300q21 29 64 52.5t94 23.5q96 0 158 -68t62 -177q0 -116 -73.5 -187t-195.5 -71zM300 419q-45 0 -83 -20.5t-57 -46.5v-272q46 -22 112 -22q84 0 133 49.5t49 133.5q0 79 -42 128.5t-112 49.5z" />
    <glyph glyph-name="c" unicode="c" horiz-adv-x="472" 
d="M298 492q78 0 119 -27l13 -75h-9q-43 31 -113 31q-82 0 -131 -49t-49 -131t50 -131.5t132 -49.5q73 0 118 37h9l-14 -76q-46 -32 -126 -32q-110 0 -180.5 69.5t-70.5 181.5q0 111 71.5 181.5t180.5 70.5z" />
    <glyph glyph-name="d" unicode="d" horiz-adv-x="586" 
d="M268 -11q-98 0 -160 70.5t-62 180.5q0 111 67.5 181.5t171.5 70.5q46 0 84 -14.5t55 -32.5v255l81 16v-716h-73v77q-16 -34 -60.5 -61t-103.5 -27zM285 59q52 0 89 25t50 56v230q-15 19 -50 34.5t-76 15.5q-78 0 -123 -48.5t-45 -129.5t42 -132t113 -51z" />
    <glyph glyph-name="e" unicode="e" horiz-adv-x="534" 
d="M490 292q0 -34 -7 -57h-356q5 -83 53.5 -129.5t134.5 -46.5q49 1 88.5 14.5t58.5 31.5h9l-13 -71q-19 -17 -60 -31t-92 -14q-115 0 -187.5 69.5t-72.5 185.5q0 110 65.5 179t169.5 69q92 0 150.5 -54.5t58.5 -145.5zM130 300h281q0 59 -35 92.5t-96 33.5q-57 0 -98 -31.5
t-52 -94.5z" />
    <glyph glyph-name="f" unicode="f" horiz-adv-x="337" 
d="M106 0v409h-80v15l80 45v95q0 70 44 112.5t115 42.5q42 0 62 -10l13 -70h-10q-18 10 -51 10q-92 0 -92 -86v-85h144l-14 -69h-130v-409h-81z" />
    <glyph glyph-name="g" unicode="g" horiz-adv-x="524" 
d="M510 496v-61l-104 -7q38 -44 38 -104q0 -74 -54.5 -121.5t-140.5 -47.5q-37 0 -68 9l-33 -93h164q77 0 118 -31.5t41 -88.5q0 -69 -58.5 -107.5t-163.5 -38.5q-126 0 -191 41l-14 72h8q76 -47 200 -47q145 0 145 75q0 59 -89 59h-232l-15 30l70 151q-78 49 -78 137
q0 74 55 121.5t141 47.5q64 0 110 -26q31 13 78.5 21.5t72.5 8.5zM250 218q55 0 86.5 28.5t31.5 76.5q0 49 -32 77.5t-86 28.5q-55 0 -87 -28.5t-32 -77.5q0 -48 32 -76.5t87 -28.5z" />
    <glyph glyph-name="h" unicode="h" horiz-adv-x="573" 
d="M322 492q81 0 128.5 -49.5t47.5 -142.5v-300h-82v287q0 132 -115 132q-46 0 -83.5 -23t-55.5 -51v-345h-82v700l82 16v-304q62 80 160 80z" />
    <glyph glyph-name="i" unicode="i" horiz-adv-x="246" 
d="M123 584q-25 0 -41 15t-16 39q0 23 16 38.5t41 15.5t41.5 -15.5t16.5 -38.5q0 -24 -16.5 -39t-41.5 -15zM83 0v481h81v-481h-81z" />
    <glyph glyph-name="j" unicode="j" horiz-adv-x="252" 
d="M129 584q-25 0 -41 15t-16 39q0 23 16 38.5t41 15.5t41.5 -15.5t16.5 -38.5q0 -24 -16.5 -39t-41.5 -15zM88 481h82v-524q0 -77 -32 -116t-91 -39q-18 0 -44 6l-11 64h9q7 -4 23 -4q38 0 51 19.5t13 70.5v523z" />
    <glyph glyph-name="k" unicode="k" horiz-adv-x="503" 
d="M80 700l79 16v-470l226 235h90v-8l-187 -194l206 -279h-88l-178 233l-69 -70v-163h-79v700z" />
    <glyph glyph-name="l" unicode="l" horiz-adv-x="246" 
d="M83 0v700l81 16v-716h-81z" />
    <glyph glyph-name="m" unicode="m" horiz-adv-x="876" 
d="M80 481h76v-77q54 88 160 88t146 -90q63 90 169 90q79 0 124.5 -49.5t45.5 -141.5v-301h-81v290q0 64 -30 96.5t-82 32.5q-80 0 -131 -66q5 -30 5 -58v-295h-81v290q0 65 -29 97t-80 32q-43 0 -78.5 -22.5t-51.5 -51.5v-345h-82v481z" />
    <glyph glyph-name="n" unicode="n" horiz-adv-x="573" 
d="M80 481h76v-77q62 88 166 88q81 0 128.5 -49.5t47.5 -142.5v-300h-82v287q0 132 -115 132q-46 0 -83.5 -23t-55.5 -51v-345h-82v481z" />
    <glyph glyph-name="o" unicode="o" horiz-adv-x="580" 
d="M290 -11q-106 0 -175 71.5t-69 181.5q0 109 69 179.5t175 70.5q107 0 175.5 -70.5t68.5 -179.5q0 -110 -68.5 -181.5t-175.5 -71.5zM290 60q75 0 120 49.5t45 132.5q0 81 -45 130t-120 49t-119.5 -49t-44.5 -130q0 -83 44.5 -132.5t119.5 -49.5z" />
    <glyph glyph-name="p" unicode="p" horiz-adv-x="587" 
d="M325 492q96 0 155.5 -68t59.5 -179q0 -114 -65 -185t-171 -71q-43 0 -82.5 13t-59.5 33v-212l-82 -16v674h76v-81q17 35 61.5 63.5t107.5 28.5zM301 419q-53 0 -89.5 -25t-49.5 -56v-234q18 -18 53 -31.5t75 -13.5q78 0 122 48t44 132q0 82 -41.5 131t-113.5 49z" />
    <glyph glyph-name="q" unicode="q" horiz-adv-x="582" 
d="M309 492q58 0 111 -16.5t84 -38.5v-614l-81 -16v248q-16 -27 -56.5 -46.5t-92.5 -19.5q-98 0 -163 66t-65 178q0 115 72 187t191 72zM311 421q-85 0 -133.5 -48.5t-48.5 -134.5q0 -82 44 -130.5t117 -48.5q50 0 86.5 20.5t46.5 44.5v270q-37 27 -112 27z" />
    <glyph glyph-name="r" unicode="r" horiz-adv-x="374" 
d="M80 0v481h75v-99q32 49 85.5 77.5t105.5 29.5l15 -89h-9q-12 4 -32 4q-43 0 -90 -26t-68 -64v-314h-82z" />
    <glyph glyph-name="s" unicode="s" horiz-adv-x="426" 
d="M234 492q77 0 122 -25l12 -69h-9q-43 30 -120 30q-50 0 -77.5 -19.5t-27.5 -48.5q0 -27 24.5 -42.5t75.5 -33.5q34 -13 53.5 -22.5t45 -27.5t38 -44t12.5 -60q0 -65 -46.5 -102t-123.5 -39h-4q-92 0 -151 40l-13 73h8q67 -49 150 -49q49 0 75 19.5t26 49.5q0 33 -27.5 52
t-82.5 39q-31 11 -51 21t-43.5 26.5t-35.5 40t-12 53.5q0 61 50.5 99.5t131.5 38.5z" />
    <glyph glyph-name="t" unicode="t" horiz-adv-x="383" 
d="M257 -10q-70 0 -114 40.5t-44 116.5v265h-75v16l133 150h23v-97h182l-13 -69h-169v-257q0 -45 23 -70.5t70 -25.5q51 0 81 24h9l-14 -70q-35 -23 -92 -23z" />
    <glyph glyph-name="u" unicode="u" horiz-adv-x="575" 
d="M248 -11q-79 0 -125.5 47t-46.5 136v309h81v-304q0 -56 29 -85.5t84 -29.5q47 0 86.5 24t56.5 55v340h81v-481h-73v83q-21 -37 -67.5 -65.5t-105.5 -28.5z" />
    <glyph glyph-name="v" unicode="v" horiz-adv-x="514" 
d="M10 481h88l162 -378l155 378h86l-209 -481h-66z" />
    <glyph glyph-name="w" unicode="w" horiz-adv-x="755" 
d="M14 481h87l121 -365l147 374h18l147 -374l121 365h84l-166 -481h-66l-129 334l-129 -334h-66z" />
    <glyph glyph-name="x" unicode="x" horiz-adv-x="481" 
d="M28 481h91l122 -183l125 183h89l-165 -235l174 -246h-92l-131 190l-133 -190h-91l175 243z" />
    <glyph glyph-name="y" unicode="y" horiz-adv-x="488" 
d="M13 481h89l150 -382l135 382h86l-205 -534q-29 -76 -66 -109.5t-92 -33.5q-27 0 -43 5l-11 67h9q12 -5 29 -5q33 0 54 19t35 59l27 69z" />
    <glyph glyph-name="z" unicode="z" horiz-adv-x="451" 
d="M26 0l274 416h-260l14 65h366v-8l-268 -409h260v-64h-386z" />
    <glyph glyph-name="braceleft" unicode="{" horiz-adv-x="300" 
d="M236 -84q-62 0 -97.5 34t-35.5 95v191q0 45 -65 45v64q65 0 65 46v190q0 60 35 93.5t97 33.5h22v-67h-17q-63 0 -63 -67v-205q0 -43 -41 -55q41 -16 41 -57v-206q0 -68 63 -68h20v-67h-24z" />
    <glyph glyph-name="bar" unicode="|" horiz-adv-x="263" 
d="M92 -185v893h79v-893h-79z" />
    <glyph glyph-name="braceright" unicode="}" horiz-adv-x="300" 
d="M64 -84h-24v67h20q63 0 63 68v206q0 41 41 57q-41 12 -41 55v205q0 67 -63 67h-17v67h22q62 0 97 -33.5t35 -93.5v-190q0 -46 65 -46v-64q-65 0 -65 -45v-191q0 -61 -35.5 -95t-97.5 -34z" />
    <glyph glyph-name="asciitilde" unicode="~" horiz-adv-x="668" 
d="M461 200q-55 0 -131 42q-72 39 -116 39q-37 0 -73.5 -15.5t-59.5 -38.5h-9v57q21 27 61 43.5t85 16.5q55 0 133 -42q70 -38 114 -38q79 0 126 64h9v-59q-19 -31 -56.5 -50t-82.5 -19z" />
    <glyph glyph-name="exclamdown" unicode="&#xa1;" horiz-adv-x="241" 
d="M79 446h81v-99h-81v99zM87 256h66l14 -298v-146h-93v146z" />
    <glyph glyph-name="cent" unicode="&#xa2;" horiz-adv-x="474" 
d="M434 140l-14 -76q-36 -26 -102 -31v-104h-70v107q-92 14 -148.5 81t-56.5 166q0 98 56.5 165.5t148.5 82.5v103h70v-100q63 -4 96 -26l13 -75h-9q-43 31 -113 31q-82 0 -131 -49t-49 -131t50 -131.5t132 -49.5q73 0 118 37h9z" />
    <glyph glyph-name="sterling" unicode="&#xa3;" horiz-adv-x="506" 
d="M156 68h311v-68h-403v65q21 14 37.5 52t16.5 87v66h-75v65h74v108q0 98 54.5 149.5t146.5 51.5q40 0 74.5 -10.5t51.5 -25.5l13 -77h-9q-42 40 -118 40q-62 0 -96.5 -32.5t-34.5 -95.5v-108h198l-14 -65h-183v-66q0 -47 -13.5 -84.5t-30.5 -51.5z" />
    <glyph glyph-name="currency" unicode="&#xa4;" horiz-adv-x="605" 
d="M102 -11l-47 48l64 64q-48 60 -48 140q0 76 47 141l-63 63l46 47l63 -65q63 47 139 47q74 0 137 -47l64 65l46 -47l-63 -64q47 -61 47 -140t-48 -140l63 -64l-45 -48l-65 66q-62 -48 -136 -48q-77 0 -138 47zM303 74q67 0 116 49.5t49 117.5t-49 117.5t-116 49.5
q-68 0 -117 -49.5t-49 -117.5q0 -69 48.5 -118t117.5 -49z" />
    <glyph glyph-name="yen" unicode="&#xa5;" horiz-adv-x="600" 
d="M578 634l-204 -301h117v-53h-147v-69h147v-53h-147v-158h-86v158h-148v53h148v69h-148v53h117l-205 301h94l186 -280l185 280h91z" />
    <glyph glyph-name="brokenbar" unicode="&#xa6;" horiz-adv-x="263" 
d="M92 374v334h79v-334h-79zM92 -185v336h79v-336h-79z" />
    <glyph glyph-name="section" unicode="&#xa7;" horiz-adv-x="452" 
d="M308 176q93 -44 93 -127q0 -66 -50.5 -104.5t-133.5 -38.5q-91 0 -147 47l-13 70h9q64 -55 149 -55q54 0 83.5 21.5t29.5 55.5q0 32 -28 53.5t-68.5 35.5t-81 30t-68.5 46t-28 75q0 43 25 74t67 47q-80 39 -80 108q0 59 49 95t127 36q80 0 121 -24l13 -61h-9
q-44 27 -121 27q-52 0 -79.5 -18.5t-27.5 -48.5q0 -27 26.5 -46t63.5 -32t74.5 -29t64 -46.5t26.5 -73.5q0 -39 -23.5 -70t-62.5 -47zM126 294q0 -31 26 -50t76 -37q44 4 69 28t25 54q0 31 -25.5 50t-75.5 37q-45 -5 -70 -28.5t-25 -53.5z" />
    <glyph glyph-name="dieresis" unicode="&#xa8;" horiz-adv-x="288" 
d="M50 682q21 0 35 -14t14 -35q0 -20 -14 -34.5t-35 -14.5t-35 14.5t-14 34.5q0 21 14 35t35 14zM240 682q21 0 35 -14t14 -35q0 -20 -14 -34.5t-35 -14.5t-35.5 14.5t-14.5 34.5q0 21 14.5 35t35.5 14z" />
    <glyph glyph-name="copyright" unicode="&#xa9;" horiz-adv-x="830" 
d="M415 -10q-159 0 -263 103t-104 261t104 261.5t263 103.5t262.5 -103.5t103.5 -261.5t-103.5 -261t-262.5 -103zM416 44q135 0 222.5 87t87.5 222q0 136 -88 224t-223 88q-134 0 -222 -88t-88 -223t88 -222.5t223 -87.5zM444 574q75 0 109 -27l7 -59h-8q-12 11 -41.5 20
t-62.5 9q-73 0 -118.5 -45.5t-45.5 -116.5q0 -72 47 -117t121 -45q67 0 106 30h9l-8 -58q-36 -29 -112 -29q-99 0 -162.5 61t-63.5 157q0 95 63.5 157.5t159.5 62.5z" />
    <glyph glyph-name="ordfeminine" unicode="&#xaa;" horiz-adv-x="411" 
d="M201 720q67 0 104.5 -33.5t37.5 -98.5v-215h-64v50q-11 -22 -41.5 -40.5t-72.5 -18.5q-49 0 -81 27.5t-32 71.5q0 48 36 78t97 30q54 0 88 -19v30q0 79 -85 79q-67 0 -108 -33h-8l12 57q35 35 117 35zM201 526q-38 0 -57.5 -16t-19.5 -42q0 -25 18 -39.5t49 -14.5
q30 0 52 15t30 34v48q-28 15 -72 15z" />
    <glyph glyph-name="guillemotleft" unicode="&#xab;" horiz-adv-x="536" 
d="M261 90h-83l-135 195l133 196h86l-133 -196zM486 90h-83l-135 195l133 196h86l-133 -196z" />
    <glyph glyph-name="logicalnot" unicode="&#xac;" horiz-adv-x="575" 
d="M65 355h436v-190h-71v127h-365v63z" />
    <glyph glyph-name="registered" unicode="&#xae;" horiz-adv-x="493" 
d="M247 333q-84 0 -143 58t-59 142q0 83 59 141.5t143 58.5t142.5 -58.5t58.5 -141.5q0 -84 -58 -142t-143 -58zM247 380q64 0 108 44.5t44 108.5t-44 108.5t-108 44.5t-108 -44.5t-44 -108.5t44 -108.5t108 -44.5zM171 434v203h86q37 0 58.5 -17.5t21.5 -48.5
q0 -45 -46 -60l51 -77h-48l-44 69h-37v-69h-42zM213 537h36q43 0 43 32q0 33 -38 33h-41v-65z" />
    <glyph glyph-name="macron" unicode="&#xaf;" horiz-adv-x="260" 
d="M0 605v67h260v-67h-260z" />
    <glyph glyph-name="degree" unicode="&#xb0;" horiz-adv-x="399" 
d="M199 414q-65 0 -109.5 44.5t-44.5 108.5t44.5 108t109.5 44q66 0 110.5 -43.5t44.5 -108.5t-44.5 -109t-110.5 -44zM198 468q42 0 70 28t28 71q0 42 -27.5 70t-69.5 28q-41 0 -68.5 -28t-27.5 -70t27.5 -70.5t67.5 -28.5z" />
    <glyph glyph-name="plusminus" unicode="&#xb1;" horiz-adv-x="526" 
d="M296 347h173v-64h-173v-149h-64v149h-174v64h174v148h64v-148zM55 1v64h411v-64h-411z" />
    <glyph glyph-name="uni00B2" unicode="&#xb2;" horiz-adv-x="411" 
d="M193 715q66 0 105.5 -34t39.5 -91q0 -34 -17 -68.5t-57 -85.5l-95 -115h184v-59h-299l-3 9l149 183q63 78 63 126q0 34 -22.5 53t-63.5 19q-34 0 -64 -12.5t-45 -27.5h-9l13 64q43 39 121 39z" />
    <glyph glyph-name="uni00B3" unicode="&#xb3;" horiz-adv-x="402" 
d="M213 529q64 -2 100.5 -38.5t36.5 -95.5q0 -65 -44.5 -103t-119.5 -38q-72 0 -120 30l-13 63h9q49 -33 117 -33q44 0 72 20.5t28 59.5q0 37 -24 59.5t-72 22.5q-33 0 -58 -7l-18 34l124 145h-175l14 60h275v-7l-143 -172h11z" />
    <glyph glyph-name="acute" unicode="&#xb4;" horiz-adv-x="210" 
d="M0 563l104 147h106v-9l-133 -138h-77z" />
    <glyph glyph-name="uni00B5" unicode="&#xb5;" horiz-adv-x="604" 
d="M86 -84v565h82v-287q0 -66 30.5 -98.5t81.5 -32.5q47 0 83.5 22.5t53.5 50.5v345h82v-364q0 -55 39 -55q11 0 19 4h9l-14 -70q-16 -7 -37 -7q-36 0 -60 24t-32 63q-15 -23 -50.5 -48.5t-85.5 -30.5q-74 -6 -123 40v-121h-78z" />
    <glyph glyph-name="paragraph" unicode="&#xb6;" horiz-adv-x="522" 
d="M215 0v320h-24q-68 0 -114.5 46t-46.5 117t48.5 116t130.5 45q40 0 76 -7v-637h-70zM267 -148q-69 0 -111 25l-13 64h9q15 -11 46.5 -19.5t62.5 -8.5q104 0 104 99v607q36 -7 70 -21v-594q0 -67 -46.5 -109.5t-121.5 -42.5z" />
    <glyph glyph-name="periodcentered" unicode="&#xb7;" horiz-adv-x="220" 
d="M69 207v99h81v-99h-81z" />
    <glyph glyph-name="cedilla" unicode="&#xb8;" horiz-adv-x="201" 
d="M9 -132q35 -22 76 -22q58 0 58 34q0 28 -35 28h-86l-9 21l44 71h47l-25 -44h38q39 0 61.5 -21t22.5 -54q-1 -38 -32 -60.5t-81 -22.5q-54 0 -81 21l-7 49h9z" />
    <glyph glyph-name="uni00B9" unicode="&#xb9;" horiz-adv-x="277" 
d="M30 665l173 51v-454h-71v367l-102 -32v68z" />
    <glyph glyph-name="ordmasculine" unicode="&#xba;" horiz-adv-x="433" 
d="M217 365q-75 0 -123.5 50.5t-48.5 127.5t48.5 127t123.5 50q74 0 122.5 -50t48.5 -127t-48.5 -127.5t-122.5 -50.5zM217 424q46 0 74 33t28 86t-28 85.5t-74 32.5q-47 0 -75.5 -32.5t-28.5 -85.5t28.5 -86t75.5 -33z" />
    <glyph glyph-name="guillemotright" unicode="&#xbb;" horiz-adv-x="536" 
d="M50 90l132 195l-133 196h86l133 -196l-135 -195h-83zM275 90l132 195l-133 196h86l133 -196l-135 -195h-83z" />
    <glyph glyph-name="onequarter" unicode="&#xbc;" horiz-adv-x="728" 
d="M111 291v280l-83 -23v56l144 42v-355h-61zM519 634h65l-408 -634h-66zM644 116h56l-11 -48h-45v-68h-61v68h-193v21l204 259h50v-232zM583 116v146l-115 -146h115z" />
    <glyph glyph-name="onehalf" unicode="&#xbd;" horiz-adv-x="741" 
d="M111 291v280l-83 -23v56l144 42v-355h-61zM518 634h65l-408 -634h-65zM561 50h141v-50h-238l-4 8l117 143q51 63 51 98q0 56 -67 56q-27 0 -51 -10t-35 -21h-9l12 54q34 31 97 31q53 0 85 -27.5t32 -74.5q0 -28 -14 -54t-47 -67z" />
    <glyph glyph-name="threequarters" unicode="&#xbe;" horiz-adv-x="769" 
d="M273 391q0 -51 -34 -81.5t-93 -30.5q-58 0 -96 25l-10 52h9q38 -27 91 -27q35 0 55 16t20 45q0 28 -19.5 45t-54.5 17q-28 0 -45 -5l-15 27l93 110h-132l11 50h215v-11l-107 -128h6q47 -2 76.5 -29.5t29.5 -74.5zM565 634h65l-408 -634h-66zM686 116h55l-12 -48h-43v-68
h-62v68h-192v21l204 259h50v-232zM624 116v146l-114 -146h114z" />
    <glyph glyph-name="questiondown" unicode="&#xbf;" horiz-adv-x="385" 
d="M269 446v-99h-81v99h81zM267 256v-46q0 -39 -15 -70.5t-30.5 -47t-43.5 -37.5q-23 -19 -33 -28.5t-21 -28t-11 -39.5q0 -39 29.5 -62t77.5 -23q67 0 124 54h9l-9 -68q-15 -21 -52 -38t-87 -17q-77 0 -125 39t-48 107q0 30 13.5 57t27 41t39.5 36q25 21 38 34t26 39.5
t13 56.5v41h78z" />
    <glyph glyph-name="Agrave" unicode="&#xc0;" horiz-adv-x="643" 
d="M388 716h-77l-133 138v9h106zM281 634h75l277 -634h-94l-56 132h-321l-53 -132h-94zM319 529l-132 -328h270z" />
    <glyph glyph-name="Aacute" unicode="&#xc1;" horiz-adv-x="643" 
d="M249 716l104 147h106v-9l-133 -138h-77zM281 634h75l277 -634h-94l-56 132h-321l-53 -132h-94zM319 529l-132 -328h270z" />
    <glyph glyph-name="Acircumflex" unicode="&#xc2;" horiz-adv-x="643" 
d="M319 810l-86 -94h-72l116 148h86l114 -148h-73zM281 634h75l277 -634h-94l-56 132h-321l-53 -132h-94zM319 529l-132 -328h270z" />
    <glyph glyph-name="Atilde" unicode="&#xc3;" horiz-adv-x="643" 
d="M160 796q18 21 46 36t55 15t67 -19.5t56 -19.5q37 0 66 39l33 -51q-15 -24 -42 -40.5t-56 -16.5q-25 0 -65.5 19t-61.5 19q-39 0 -68 -33zM281 634h75l277 -634h-94l-56 132h-321l-53 -132h-94zM319 529l-132 -328h270z" />
    <glyph glyph-name="Adieresis" unicode="&#xc4;" horiz-adv-x="643" 
d="M220 837q22 0 37 -15.5t15 -37.5t-15 -37.5t-37 -15.5t-37.5 15.5t-15.5 37.5t15.5 37.5t37.5 15.5zM416 837q23 0 38.5 -15.5t15.5 -37.5t-15.5 -37.5t-38.5 -15.5q-22 0 -37 15.5t-15 37.5t15 37.5t37 15.5zM281 634h75l277 -634h-94l-56 132h-321l-53 -132h-94z
M319 529l-132 -328h270z" />
    <glyph glyph-name="Aring" unicode="&#xc5;" horiz-adv-x="643" 
d="M318 699q-44 0 -73.5 28t-29.5 71q0 42 29.5 70.5t73.5 28.5t73.5 -28.5t29.5 -70.5q0 -43 -29.5 -71t-73.5 -28zM318 746q23 0 37 14t14 39q0 22 -15 36.5t-36 14.5q-23 0 -36.5 -14.5t-13.5 -39.5q0 -21 14.5 -35.5t35.5 -14.5zM281 634h75l277 -634h-94l-56 132h-321
l-53 -132h-94zM319 529l-132 -328h270z" />
    <glyph glyph-name="AE" unicode="&#xc6;" horiz-adv-x="887" 
d="M537 76h305l-11 -76h-381v132h-280l-86 -132h-94l413 634h421l11 -76h-298v-209h243v-72h-243v-201zM212 201h238v369z" />
    <glyph glyph-name="Ccedilla" unicode="&#xc7;" horiz-adv-x="600" 
d="M387 -11h-11l-19 -33h38q39 0 61.5 -21t22.5 -54q-1 -38 -32 -60.5t-81 -22.5q-54 0 -81 21l-7 49h9q35 -22 76 -22q58 0 58 34q0 28 -35 28h-86l-9 21l40 64q-125 17 -202 105.5t-77 216.5q0 143 93.5 236t237.5 93q106 0 159 -37l12 -85h-9q-21 17 -63.5 29.5
t-90.5 12.5q-110 0 -179 -69t-69 -178q0 -110 70.5 -179t182.5 -69q103 0 158 47h10l-13 -86q-57 -41 -164 -41z" />
    <glyph glyph-name="Egrave" unicode="&#xc8;" horiz-adv-x="534" 
d="M358 716h-77l-133 138v9h106zM97 634h374l11 -76h-298v-209h243v-72h-243v-201h305l-11 -76h-381v634z" />
    <glyph glyph-name="Eacute" unicode="&#xc9;" horiz-adv-x="534" 
d="M219 716l104 147h106v-9l-133 -138h-77zM97 634h374l11 -76h-298v-209h243v-72h-243v-201h305l-11 -76h-381v634z" />
    <glyph glyph-name="Ecircumflex" unicode="&#xca;" horiz-adv-x="534" 
d="M289 810l-86 -94h-72l116 148h86l114 -148h-73zM97 634h374l11 -76h-298v-209h243v-72h-243v-201h305l-11 -76h-381v634z" />
    <glyph glyph-name="Edieresis" unicode="&#xcb;" horiz-adv-x="534" 
d="M190 837q22 0 37 -15.5t15 -37.5t-15 -37.5t-37 -15.5t-37.5 15.5t-15.5 37.5t15.5 37.5t37.5 15.5zM386 837q23 0 38.5 -15.5t15.5 -37.5t-15.5 -37.5t-38.5 -15.5q-22 0 -37 15.5t-15 37.5t15 37.5t37 15.5zM97 634h374l11 -76h-298v-209h243v-72h-243v-201h305
l-11 -76h-381v634z" />
    <glyph glyph-name="Igrave" unicode="&#xcc;" horiz-adv-x="281" 
d="M210 716h-77l-133 138v9h106zM97 0v634h87v-634h-87z" />
    <glyph glyph-name="Iacute" unicode="&#xcd;" horiz-adv-x="281" 
d="M71 716l104 147h106v-9l-133 -138h-77zM97 0v634h87v-634h-87z" />
    <glyph glyph-name="Icircumflex" unicode="&#xce;" horiz-adv-x="281" 
d="M141 810l-86 -94h-72l116 148h86l114 -148h-73zM97 0v634h87v-634h-87z" />
    <glyph glyph-name="Idieresis" unicode="&#xcf;" horiz-adv-x="281" 
d="M42 837q22 0 37 -15.5t15 -37.5t-15 -37.5t-37 -15.5t-37.5 15.5t-15.5 37.5t15.5 37.5t37.5 15.5zM238 837q23 0 38.5 -15.5t15.5 -37.5t-15.5 -37.5t-38.5 -15.5q-22 0 -37 15.5t-15 37.5t15 37.5t37 15.5zM97 0v634h87v-634h-87z" />
    <glyph glyph-name="Eth" unicode="&#xd0;" horiz-adv-x="707" 
d="M329 634q151 0 237.5 -83.5t86.5 -230.5q0 -149 -86.5 -234.5t-235.5 -85.5h-221v278h-88v70h88v286h219zM320 76q116 0 178.5 62t62.5 181q0 117 -62.5 178t-181.5 61h-120v-210h150v-70h-150v-202h123z" />
    <glyph glyph-name="Ntilde" unicode="&#xd1;" horiz-adv-x="749" 
d="M222 796q18 21 46 36t55 15t67 -19.5t56 -19.5q37 0 66 39l33 -51q-15 -24 -42 -40.5t-56 -16.5q-25 0 -65.5 19t-61.5 19q-39 0 -68 -33zM97 0v634h72l398 -504v504h85v-634h-70l-400 496v-496h-85z" />
    <glyph glyph-name="Ograve" unicode="&#xd2;" horiz-adv-x="741" 
d="M442 716h-77l-133 138v9h106zM371 -11q-139 0 -229 92.5t-90 235.5t90 235t229 92q138 0 228 -92t90 -235t-90 -235.5t-228 -92.5zM371 68q102 0 166.5 69.5t64.5 179.5t-64.5 179t-166.5 69q-103 0 -167 -69t-64 -179t64.5 -179.5t166.5 -69.5z" />
    <glyph glyph-name="Oacute" unicode="&#xd3;" horiz-adv-x="741" 
d="M303 716l104 147h106v-9l-133 -138h-77zM371 -11q-139 0 -229 92.5t-90 235.5t90 235t229 92q138 0 228 -92t90 -235t-90 -235.5t-228 -92.5zM371 68q102 0 166.5 69.5t64.5 179.5t-64.5 179t-166.5 69q-103 0 -167 -69t-64 -179t64.5 -179.5t166.5 -69.5z" />
    <glyph glyph-name="Ocircumflex" unicode="&#xd4;" horiz-adv-x="741" 
d="M373 810l-86 -94h-72l116 148h86l114 -148h-73zM371 -11q-139 0 -229 92.5t-90 235.5t90 235t229 92q138 0 228 -92t90 -235t-90 -235.5t-228 -92.5zM371 68q102 0 166.5 69.5t64.5 179.5t-64.5 179t-166.5 69q-103 0 -167 -69t-64 -179t64.5 -179.5t166.5 -69.5z" />
    <glyph glyph-name="Otilde" unicode="&#xd5;" horiz-adv-x="741" 
d="M214 796q18 21 46 36t55 15t67 -19.5t56 -19.5q37 0 66 39l33 -51q-15 -24 -42 -40.5t-56 -16.5q-25 0 -65.5 19t-61.5 19q-39 0 -68 -33zM371 -11q-139 0 -229 92.5t-90 235.5t90 235t229 92q138 0 228 -92t90 -235t-90 -235.5t-228 -92.5zM371 68q102 0 166.5 69.5
t64.5 179.5t-64.5 179t-166.5 69q-103 0 -167 -69t-64 -179t64.5 -179.5t166.5 -69.5z" />
    <glyph glyph-name="Odieresis" unicode="&#xd6;" horiz-adv-x="741" 
d="M274 837q22 0 37 -15.5t15 -37.5t-15 -37.5t-37 -15.5t-37.5 15.5t-15.5 37.5t15.5 37.5t37.5 15.5zM470 837q23 0 38.5 -15.5t15.5 -37.5t-15.5 -37.5t-38.5 -15.5q-22 0 -37 15.5t-15 37.5t15 37.5t37 15.5zM371 -11q-139 0 -229 92.5t-90 235.5t90 235t229 92
q138 0 228 -92t90 -235t-90 -235.5t-228 -92.5zM371 68q102 0 166.5 69.5t64.5 179.5t-64.5 179t-166.5 69q-103 0 -167 -69t-64 -179t64.5 -179.5t166.5 -69.5z" />
    <glyph glyph-name="multiply" unicode="&#xd7;" horiz-adv-x="480" 
d="M427 391l-143 -145l143 -145l-45 -45l-142 145l-143 -145l-45 45l143 145l-143 145l45 45l143 -146l142 145z" />
    <glyph glyph-name="Oslash" unicode="&#xd8;" horiz-adv-x="746" 
d="M605 548q86 -92 86 -231q0 -143 -90 -235.5t-228 -92.5q-105 0 -186 56l-71 -86l-38 31l71 86q-95 93 -95 241q0 143 90 235t229 92q112 0 195 -63l73 88l39 -31zM142 317q0 -107 61 -176l313 377q-61 47 -143 47q-103 0 -167 -69t-64 -179zM373 68q102 0 166.5 69.5
t64.5 179.5q0 99 -53 166l-311 -375q55 -40 133 -40z" />
    <glyph glyph-name="Ugrave" unicode="&#xd9;" horiz-adv-x="715" 
d="M429 716h-77l-133 138v9h106zM357 -10q-126 0 -198.5 80t-72.5 216v348h88v-351q0 -101 47.5 -157t135.5 -56q89 0 136.5 56t47.5 157v351h87v-348q0 -136 -72.5 -216t-198.5 -80z" />
    <glyph glyph-name="Uacute" unicode="&#xda;" horiz-adv-x="715" 
d="M290 716l104 147h106v-9l-133 -138h-77zM357 -10q-126 0 -198.5 80t-72.5 216v348h88v-351q0 -101 47.5 -157t135.5 -56q89 0 136.5 56t47.5 157v351h87v-348q0 -136 -72.5 -216t-198.5 -80z" />
    <glyph glyph-name="Ucircumflex" unicode="&#xdb;" horiz-adv-x="715" 
d="M360 810l-86 -94h-72l116 148h86l114 -148h-73zM357 -10q-126 0 -198.5 80t-72.5 216v348h88v-351q0 -101 47.5 -157t135.5 -56q89 0 136.5 56t47.5 157v351h87v-348q0 -136 -72.5 -216t-198.5 -80z" />
    <glyph glyph-name="Udieresis" unicode="&#xdc;" horiz-adv-x="715" 
d="M261 837q22 0 37 -15.5t15 -37.5t-15 -37.5t-37 -15.5q-23 0 -38 15.5t-15 37.5t15 37.5t38 15.5zM457 837q23 0 38.5 -15.5t15.5 -37.5t-15.5 -37.5t-38.5 -15.5q-22 0 -37 15.5t-15 37.5t15 37.5t37 15.5zM357 -10q-126 0 -198.5 80t-72.5 216v348h88v-351
q0 -101 47.5 -157t135.5 -56q89 0 136.5 56t47.5 157v351h87v-348q0 -136 -72.5 -216t-198.5 -80z" />
    <glyph glyph-name="Yacute" unicode="&#xdd;" horiz-adv-x="591" 
d="M227 716l104 147h106v-9l-133 -138h-77zM15 634h99l182 -276l183 276h96l-235 -347v-287h-89v287z" />
    <glyph glyph-name="Thorn" unicode="&#xde;" horiz-adv-x="619" 
d="M97 634h87v-104h142q115 0 179.5 -58.5t64.5 -157.5q0 -100 -69.5 -158t-182.5 -58h-134v-98h-87v634zM184 455v-282h128q79 0 122.5 36t43.5 105q0 67 -41 104t-118 37h-135z" />
    <glyph glyph-name="germandbls" unicode="&#xdf;" horiz-adv-x="589" 
d="M300 719q97 0 152 -53t55 -135q0 -61 -30.5 -101.5t-83.5 -57.5q66 -14 108.5 -62t42.5 -128q0 -87 -52 -140t-140 -53q-70 0 -107 25l-16 68h10q35 -25 95 -25q59 0 94.5 34.5t35.5 95.5q0 67 -43.5 108t-119.5 41h-52v61h39q54 0 98 32.5t44 96.5q0 56 -35.5 89.5
t-96.5 33.5q-63 0 -99.5 -37.5t-36.5 -106.5v-505h-82v509q0 96 60.5 153t159.5 57z" />
    <glyph glyph-name="agrave" unicode="&#xe0;" horiz-adv-x="515" 
d="M315 563h-77l-133 138v9h106zM248 492q89 0 140.5 -46.5t51.5 -137.5v-308h-75v73q-17 -32 -60.5 -58.5t-103.5 -26.5q-71 0 -116 38.5t-45 101.5q0 68 50.5 110.5t137.5 42.5q75 0 131 -26v46q0 121 -125 121q-103 0 -157 -50h-8l13 68q20 21 64 36.5t102 15.5zM244 219
q-60 0 -91 -22.5t-31 -60.5q0 -37 27.5 -58.5t74.5 -21.5q50 0 86.5 22.5t48.5 50.5v68q-44 22 -115 22z" />
    <glyph glyph-name="aacute" unicode="&#xe1;" horiz-adv-x="515" 
d="M178 563l104 147h106v-9l-133 -138h-77zM248 492q89 0 140.5 -46.5t51.5 -137.5v-308h-75v73q-17 -32 -60.5 -58.5t-103.5 -26.5q-71 0 -116 38.5t-45 101.5q0 68 50.5 110.5t137.5 42.5q75 0 131 -26v46q0 121 -125 121q-103 0 -157 -50h-8l13 68q20 21 64 36.5
t102 15.5zM244 219q-60 0 -91 -22.5t-31 -60.5q0 -37 27.5 -58.5t74.5 -21.5q50 0 86.5 22.5t48.5 50.5v68q-44 22 -115 22z" />
    <glyph glyph-name="acircumflex" unicode="&#xe2;" horiz-adv-x="515" 
d="M248 657l-86 -94h-72l116 148h86l114 -148h-73zM248 492q89 0 140.5 -46.5t51.5 -137.5v-308h-75v73q-17 -32 -60.5 -58.5t-103.5 -26.5q-71 0 -116 38.5t-45 101.5q0 68 50.5 110.5t137.5 42.5q75 0 131 -26v46q0 121 -125 121q-103 0 -157 -50h-8l13 68q20 21 64 36.5
t102 15.5zM244 219q-60 0 -91 -22.5t-31 -60.5q0 -37 27.5 -58.5t74.5 -21.5q50 0 86.5 22.5t48.5 50.5v68q-44 22 -115 22z" />
    <glyph glyph-name="atilde" unicode="&#xe3;" horiz-adv-x="515" 
d="M88 642q18 21 45.5 35.5t54.5 14.5q28 0 67.5 -20t54.5 -20q36 0 66 40l32 -48q-14 -23 -40.5 -40t-55.5 -17q-26 0 -66 20t-61 20q-39 0 -68 -33zM248 492q89 0 140.5 -46.5t51.5 -137.5v-308h-75v73q-17 -32 -60.5 -58.5t-103.5 -26.5q-71 0 -116 38.5t-45 101.5
q0 68 50.5 110.5t137.5 42.5q75 0 131 -26v46q0 121 -125 121q-103 0 -157 -50h-8l13 68q20 21 64 36.5t102 15.5zM244 219q-60 0 -91 -22.5t-31 -60.5q0 -37 27.5 -58.5t74.5 -21.5q50 0 86.5 22.5t48.5 50.5v68q-44 22 -115 22z" />
    <glyph glyph-name="adieresis" unicode="&#xe4;" horiz-adv-x="515" 
d="M153 682q21 0 35 -14t14 -35q0 -20 -14 -34.5t-35 -14.5t-35 14.5t-14 34.5q0 21 14 35t35 14zM343 682q21 0 35 -14t14 -35q0 -20 -14 -34.5t-35 -14.5t-35.5 14.5t-14.5 34.5q0 21 14.5 35t35.5 14zM248 492q89 0 140.5 -46.5t51.5 -137.5v-308h-75v73
q-17 -32 -60.5 -58.5t-103.5 -26.5q-71 0 -116 38.5t-45 101.5q0 68 50.5 110.5t137.5 42.5q75 0 131 -26v46q0 121 -125 121q-103 0 -157 -50h-8l13 68q20 21 64 36.5t102 15.5zM244 219q-60 0 -91 -22.5t-31 -60.5q0 -37 27.5 -58.5t74.5 -21.5q50 0 86.5 22.5t48.5 50.5
v68q-44 22 -115 22z" />
    <glyph glyph-name="aring" unicode="&#xe5;" horiz-adv-x="515" 
d="M248 546q-44 0 -73.5 28t-29.5 71q0 42 29.5 70.5t73.5 28.5t73.5 -28.5t29.5 -70.5q0 -43 -29.5 -71t-73.5 -28zM248 593q23 0 37 14t14 39q0 22 -15 36.5t-36 14.5q-23 0 -36.5 -14.5t-13.5 -39.5q0 -21 14.5 -35.5t35.5 -14.5zM248 492q89 0 140.5 -46.5t51.5 -137.5
v-308h-75v73q-17 -32 -60.5 -58.5t-103.5 -26.5q-71 0 -116 38.5t-45 101.5q0 68 50.5 110.5t137.5 42.5q75 0 131 -26v46q0 121 -125 121q-103 0 -157 -50h-8l13 68q20 21 64 36.5t102 15.5zM244 219q-60 0 -91 -22.5t-31 -60.5q0 -37 27.5 -58.5t74.5 -21.5
q50 0 86.5 22.5t48.5 50.5v68q-44 22 -115 22z" />
    <glyph glyph-name="ae" unicode="&#xe6;" horiz-adv-x="859" 
d="M247 492q132 0 170 -101q63 100 189 100q93 0 151 -55t58 -142q0 -27 -7 -62h-355q4 -79 53.5 -126t133.5 -47q49 1 88.5 15t58.5 31h9l-13 -71q-20 -17 -60.5 -31t-90.5 -14q-147 0 -216 115q-24 -48 -79.5 -82t-124.5 -34q-77 0 -124.5 39t-47.5 105q0 67 49 108
t139 41h132v33q0 54 -32.5 81t-92.5 27q-101 0 -157 -50h-9l13 68q20 21 64 36.5t101 15.5zM604 425q-58 0 -100 -33.5t-51 -102.5h283q1 68 -35.5 102t-96.5 34zM242 226q-61 0 -91 -24t-30 -65q0 -39 28 -64t77 -25q44 0 81 23t53 54v101h-118z" />
    <glyph glyph-name="ccedilla" unicode="&#xe7;" horiz-adv-x="472" 
d="M297 -11h-8l-19 -33h38q39 0 61.5 -21t22.5 -54q-1 -38 -32 -60.5t-81 -22.5q-54 0 -81 21l-7 49h9q35 -22 76 -22q58 0 58 34q0 28 -35 28h-86l-9 21l40 65q-89 16 -143.5 82.5t-54.5 163.5q0 111 71.5 181.5t180.5 70.5q78 0 119 -27l13 -75h-9q-43 31 -113 31
q-82 0 -131 -49t-49 -131t50 -131.5t132 -49.5q73 0 118 37h9l-14 -76q-46 -32 -126 -32z" />
    <glyph glyph-name="egrave" unicode="&#xe8;" horiz-adv-x="534" 
d="M348 563h-77l-133 138v9h106zM490 292q0 -34 -7 -57h-356q5 -83 53.5 -129.5t134.5 -46.5q49 1 88.5 14.5t58.5 31.5h9l-13 -71q-19 -17 -60 -31t-92 -14q-115 0 -187.5 69.5t-72.5 185.5q0 110 65.5 179t169.5 69q92 0 150.5 -54.5t58.5 -145.5zM130 300h281
q0 59 -35 92.5t-96 33.5q-57 0 -98 -31.5t-52 -94.5z" />
    <glyph glyph-name="eacute" unicode="&#xe9;" horiz-adv-x="534" 
d="M421 701l-133 -138h-77l104 147h106v-9zM490 292q0 -34 -7 -57h-356q5 -83 53.5 -129.5t134.5 -46.5q49 1 88.5 14.5t58.5 31.5h9l-13 -71q-19 -17 -60 -31t-92 -14q-115 0 -187.5 69.5t-72.5 185.5q0 110 65.5 179t169.5 69q92 0 150.5 -54.5t58.5 -145.5zM130 300h281
q0 59 -35 92.5t-96 33.5q-57 0 -98 -31.5t-52 -94.5z" />
    <glyph glyph-name="ecircumflex" unicode="&#xea;" horiz-adv-x="534" 
d="M281 657l-86 -94h-72l116 148h86l114 -148h-73zM490 292q0 -34 -7 -57h-356q5 -83 53.5 -129.5t134.5 -46.5q49 1 88.5 14.5t58.5 31.5h9l-13 -71q-19 -17 -60 -31t-92 -14q-115 0 -187.5 69.5t-72.5 185.5q0 110 65.5 179t169.5 69q92 0 150.5 -54.5t58.5 -145.5z
M130 300h281q0 59 -35 92.5t-96 33.5q-57 0 -98 -31.5t-52 -94.5z" />
    <glyph glyph-name="edieresis" unicode="&#xeb;" horiz-adv-x="534" 
d="M186 584q-21 0 -35 14.5t-14 34.5q0 21 14 35t35 14t35 -14t14 -35q0 -20 -14 -34.5t-35 -14.5zM376 584q-21 0 -35.5 14.5t-14.5 34.5q0 21 14.5 35t35.5 14t35 -14t14 -35q0 -20 -14 -34.5t-35 -14.5zM490 292q0 -34 -7 -57h-356q5 -83 53.5 -129.5t134.5 -46.5
q49 1 88.5 14.5t58.5 31.5h9l-13 -71q-19 -17 -60 -31t-92 -14q-115 0 -187.5 69.5t-72.5 185.5q0 110 65.5 179t169.5 69q92 0 150.5 -54.5t58.5 -145.5zM130 300h281q0 59 -35 92.5t-96 33.5q-57 0 -98 -31.5t-52 -94.5z" />
    <glyph glyph-name="igrave" unicode="&#xec;" horiz-adv-x="246" 
d="M191 563h-77l-133 138v9h106zM83 0v481h81v-481h-81z" />
    <glyph glyph-name="iacute" unicode="&#xed;" horiz-adv-x="246" 
d="M54 563l104 147h106v-9l-133 -138h-77zM83 0v481h81v-481h-81z" />
    <glyph glyph-name="icircumflex" unicode="&#xee;" horiz-adv-x="246" 
d="M124 657l-86 -94h-72l116 148h86l114 -148h-73zM83 0v481h81v-481h-81z" />
    <glyph glyph-name="idieresis" unicode="&#xef;" horiz-adv-x="246" 
d="M29 682q21 0 35 -14t14 -35q0 -20 -14 -34.5t-35 -14.5t-35 14.5t-14 34.5q0 21 14 35t35 14zM219 682q21 0 35 -14t14 -35q0 -20 -14 -34.5t-35 -14.5t-35.5 14.5t-14.5 34.5q0 21 14.5 35t35.5 14zM83 0v481h81v-481h-81z" />
    <glyph glyph-name="eth" unicode="&#xf0;" horiz-adv-x="586" 
d="M422 588q108 -137 108 -317q0 -132 -65.5 -207t-173.5 -75q-109 0 -177 68.5t-68 174.5t64 173.5t165 67.5q50 0 94.5 -22.5t64.5 -61.5q-15 90 -79 168l-64 -29l-25 57l45 21q-54 51 -121 93v9h96q51 -31 92 -72l100 46l26 -56zM288 58q72 0 116 48t44 127t-44 125.5
t-116 46.5q-73 0 -117.5 -47.5t-44.5 -124.5q0 -78 44.5 -126.5t117.5 -48.5z" />
    <glyph glyph-name="ntilde" unicode="&#xf1;" horiz-adv-x="573" 
d="M127 642q18 21 45.5 35.5t54.5 14.5q28 0 67.5 -20t54.5 -20q36 0 66 40l32 -48q-14 -23 -40.5 -40t-55.5 -17q-26 0 -66 20t-61 20q-39 0 -68 -33zM80 481h76v-77q62 88 166 88q81 0 128.5 -49.5t47.5 -142.5v-300h-82v287q0 132 -115 132q-46 0 -83.5 -23t-55.5 -51
v-345h-82v481z" />
    <glyph glyph-name="ograve" unicode="&#xf2;" horiz-adv-x="580" 
d="M357 563h-77l-133 138v9h106zM290 -11q-106 0 -175 71.5t-69 181.5q0 109 69 179.5t175 70.5q107 0 175.5 -70.5t68.5 -179.5q0 -110 -68.5 -181.5t-175.5 -71.5zM290 60q75 0 120 49.5t45 132.5q0 81 -45 130t-120 49t-119.5 -49t-44.5 -130q0 -83 44.5 -132.5
t119.5 -49.5z" />
    <glyph glyph-name="oacute" unicode="&#xf3;" horiz-adv-x="580" 
d="M220 563l104 147h106v-9l-133 -138h-77zM290 -11q-106 0 -175 71.5t-69 181.5q0 109 69 179.5t175 70.5q107 0 175.5 -70.5t68.5 -179.5q0 -110 -68.5 -181.5t-175.5 -71.5zM290 60q75 0 120 49.5t45 132.5q0 81 -45 130t-120 49t-119.5 -49t-44.5 -130
q0 -83 44.5 -132.5t119.5 -49.5z" />
    <glyph glyph-name="ocircumflex" unicode="&#xf4;" horiz-adv-x="580" 
d="M290 657l-86 -94h-72l116 148h86l114 -148h-73zM290 -11q-106 0 -175 71.5t-69 181.5q0 109 69 179.5t175 70.5q107 0 175.5 -70.5t68.5 -179.5q0 -110 -68.5 -181.5t-175.5 -71.5zM290 60q75 0 120 49.5t45 132.5q0 81 -45 130t-120 49t-119.5 -49t-44.5 -130
q0 -83 44.5 -132.5t119.5 -49.5z" />
    <glyph glyph-name="otilde" unicode="&#xf5;" horiz-adv-x="580" 
d="M130 642q18 21 45.5 35.5t54.5 14.5q28 0 67.5 -20t54.5 -20q36 0 66 40l32 -48q-14 -23 -40.5 -40t-55.5 -17q-26 0 -66 20t-61 20q-39 0 -68 -33zM290 -11q-106 0 -175 71.5t-69 181.5q0 109 69 179.5t175 70.5q107 0 175.5 -70.5t68.5 -179.5q0 -110 -68.5 -181.5
t-175.5 -71.5zM290 60q75 0 120 49.5t45 132.5q0 81 -45 130t-120 49t-119.5 -49t-44.5 -130q0 -83 44.5 -132.5t119.5 -49.5z" />
    <glyph glyph-name="odieresis" unicode="&#xf6;" horiz-adv-x="580" 
d="M195 682q21 0 35 -14t14 -35q0 -20 -14 -34.5t-35 -14.5t-35 14.5t-14 34.5q0 21 14 35t35 14zM385 682q21 0 35 -14t14 -35q0 -20 -14 -34.5t-35 -14.5t-35.5 14.5t-14.5 34.5q0 21 14.5 35t35.5 14zM290 -11q-106 0 -175 71.5t-69 181.5q0 109 69 179.5t175 70.5
q107 0 175.5 -70.5t68.5 -179.5q0 -110 -68.5 -181.5t-175.5 -71.5zM290 60q75 0 120 49.5t45 132.5q0 81 -45 130t-120 49t-119.5 -49t-44.5 -130q0 -83 44.5 -132.5t119.5 -49.5z" />
    <glyph glyph-name="divide" unicode="&#xf7;" horiz-adv-x="551" 
d="M278 355q-21 0 -36 15t-15 37q0 21 15 36t36 15t36.5 -15t15.5 -36t-15 -36.5t-37 -15.5zM57 217v60h436v-60h-436zM278 38q-21 0 -36 15t-15 36q0 22 15 37t36 15t36.5 -15t15.5 -37q0 -21 -15 -36t-37 -15z" />
    <glyph glyph-name="oslash" unicode="&#xf8;" horiz-adv-x="590" 
d="M547 489l-68 -78q59 -69 59 -169q0 -110 -68.5 -181.5t-175.5 -71.5q-83 0 -144 45l-60 -69l-37 31l61 70q-64 70 -64 176q0 109 69 179.5t175 70.5q88 0 150 -48l66 76zM130 242q0 -73 34 -119l232 266q-41 32 -102 32q-75 0 -119.5 -49t-44.5 -130zM459 242
q0 65 -30 111l-231 -264q40 -29 96 -29q75 0 120 49.5t45 132.5z" />
    <glyph glyph-name="ugrave" unicode="&#xf9;" horiz-adv-x="575" 
d="M352 563h-77l-133 138v9h106zM248 -11q-79 0 -125.5 47t-46.5 136v309h81v-304q0 -56 29 -85.5t84 -29.5q47 0 86.5 24t56.5 55v340h81v-481h-73v83q-21 -37 -67.5 -65.5t-105.5 -28.5z" />
    <glyph glyph-name="uacute" unicode="&#xfa;" horiz-adv-x="575" 
d="M215 563l104 147h106v-9l-133 -138h-77zM248 -11q-79 0 -125.5 47t-46.5 136v309h81v-304q0 -56 29 -85.5t84 -29.5q47 0 86.5 24t56.5 55v340h81v-481h-73v83q-21 -37 -67.5 -65.5t-105.5 -28.5z" />
    <glyph glyph-name="ucircumflex" unicode="&#xfb;" horiz-adv-x="575" 
d="M285 657l-86 -94h-72l116 148h86l114 -148h-73zM248 -11q-79 0 -125.5 47t-46.5 136v309h81v-304q0 -56 29 -85.5t84 -29.5q47 0 86.5 24t56.5 55v340h81v-481h-73v83q-21 -37 -67.5 -65.5t-105.5 -28.5z" />
    <glyph glyph-name="udieresis" unicode="&#xfc;" horiz-adv-x="575" 
d="M190 682q21 0 35 -14t14 -35q0 -20 -14 -34.5t-35 -14.5t-35 14.5t-14 34.5q0 21 14 35t35 14zM380 682q21 0 35 -14t14 -35q0 -20 -14 -34.5t-35 -14.5t-35.5 14.5t-14.5 34.5q0 21 14.5 35t35.5 14zM248 -11q-79 0 -125.5 47t-46.5 136v309h81v-304q0 -56 29 -85.5
t84 -29.5q47 0 86.5 24t56.5 55v340h81v-481h-73v83q-21 -37 -67.5 -65.5t-105.5 -28.5z" />
    <glyph glyph-name="yacute" unicode="&#xfd;" horiz-adv-x="488" 
d="M174 563l104 147h106v-9l-133 -138h-77zM13 481h89l150 -382l135 382h86l-205 -534q-29 -76 -66 -109.5t-92 -33.5q-27 0 -43 5l-11 67h9q12 -5 29 -5q33 0 54 19t35 59l27 69z" />
    <glyph glyph-name="thorn" unicode="&#xfe;" horiz-adv-x="587" 
d="M325 492q96 0 155.5 -68t59.5 -179q0 -114 -65 -185t-171 -71q-43 0 -82.5 13t-59.5 33v-212l-82 -16v901h82v-297q21 33 63 57t100 24zM290 59q78 0 122 48t44 132q0 82 -41.5 131t-113.5 49q-53 0 -89.5 -25t-49.5 -56v-234q18 -18 53 -31.5t75 -13.5z" />
    <glyph glyph-name="ydieresis" unicode="&#xff;" horiz-adv-x="488" 
d="M149 682q21 0 35 -14t14 -35q0 -20 -14 -34.5t-35 -14.5t-35 14.5t-14 34.5q0 21 14 35t35 14zM339 682q21 0 35 -14t14 -35q0 -20 -14 -34.5t-35 -14.5t-35.5 14.5t-14.5 34.5q0 21 14.5 35t35.5 14zM13 481h89l150 -382l135 382h86l-205 -534q-29 -76 -66 -109.5
t-92 -33.5q-27 0 -43 5l-11 67h9q12 -5 29 -5q33 0 54 19t35 59l27 69z" />
    <glyph glyph-name="Amacron" unicode="&#x100;" horiz-adv-x="643" 
d="M188 758v67h260v-67h-260zM281 634h75l277 -634h-94l-56 132h-321l-53 -132h-94zM319 529l-132 -328h270z" />
    <glyph glyph-name="amacron" unicode="&#x101;" horiz-adv-x="515" 
d="M117 605v67h260v-67h-260zM248 492q89 0 140.5 -46.5t51.5 -137.5v-308h-75v73q-17 -32 -60.5 -58.5t-103.5 -26.5q-71 0 -116 38.5t-45 101.5q0 68 50.5 110.5t137.5 42.5q75 0 131 -26v46q0 121 -125 121q-103 0 -157 -50h-8l13 68q20 21 64 36.5t102 15.5zM244 219
q-60 0 -91 -22.5t-31 -60.5q0 -37 27.5 -58.5t74.5 -21.5q50 0 86.5 22.5t48.5 50.5v68q-44 22 -115 22z" />
    <glyph glyph-name="Abreve" unicode="&#x102;" horiz-adv-x="643" 
d="M319 722q-63 0 -101.5 39t-44.5 96h58q6 -34 29 -54.5t59 -20.5t59 20.5t28 54.5h58q-6 -57 -44.5 -96t-100.5 -39zM281 634h75l277 -634h-94l-56 132h-321l-53 -132h-94zM319 529l-132 -328h270z" />
    <glyph glyph-name="abreve" unicode="&#x103;" horiz-adv-x="515" 
d="M248 569q-62 0 -101 39t-45 96h58q6 -34 29 -54.5t59 -20.5t59 20.5t28 54.5h58q-6 -57 -44.5 -96t-100.5 -39zM248 492q89 0 140.5 -46.5t51.5 -137.5v-308h-75v73q-17 -32 -60.5 -58.5t-103.5 -26.5q-71 0 -116 38.5t-45 101.5q0 68 50.5 110.5t137.5 42.5
q75 0 131 -26v46q0 121 -125 121q-103 0 -157 -50h-8l13 68q20 21 64 36.5t102 15.5zM244 219q-60 0 -91 -22.5t-31 -60.5q0 -37 27.5 -58.5t74.5 -21.5q50 0 86.5 22.5t48.5 50.5v68q-44 22 -115 22z" />
    <glyph glyph-name="Aogonek" unicode="&#x104;" horiz-adv-x="643" 
d="M625 -125h9v-44q-22 -14 -54 -14q-42 0 -68.5 22t-26.5 58q0 32 21 60t53 43h-20l-56 132h-321l-53 -132h-94l266 634h75l277 -634h-8q-29 -10 -49.5 -33.5t-20.5 -49.5q0 -19 12 -33t33 -14q17 0 25 5zM187 201h270l-138 328z" />
    <glyph glyph-name="aogonek" unicode="&#x105;" horiz-adv-x="515" 
d="M434 -125h9v-44q-22 -14 -54 -14q-42 0 -68.5 22t-26.5 58q0 33 19.5 62t51.5 46v68q-17 -32 -60.5 -58.5t-103.5 -26.5q-71 0 -116 38.5t-45 101.5q0 68 50.5 110.5t137.5 42.5q75 0 131 -26v46q0 121 -125 121q-103 0 -157 -50h-8l13 68q20 21 64 36.5t102 15.5
q89 0 140.5 -46.5t51.5 -137.5v-308h-6q-29 -10 -49 -33.5t-20 -49.5q0 -20 11.5 -33.5t32.5 -13.5q17 0 25 5zM359 129v68q-44 22 -115 22q-60 0 -91 -22.5t-31 -60.5q0 -37 27.5 -58.5t74.5 -21.5q50 0 86.5 22.5t48.5 50.5z" />
    <glyph glyph-name="Cacute" unicode="&#x106;" horiz-adv-x="600" 
d="M285 716l104 147h106v-9l-133 -138h-77zM383 644q106 0 159 -37l12 -85h-9q-21 17 -63.5 29.5t-90.5 12.5q-110 0 -179 -69t-69 -178q0 -110 70.5 -179t182.5 -69q103 0 158 47h10l-13 -86q-57 -41 -164 -41q-147 0 -241 91.5t-94 234.5t93.5 236t237.5 93z" />
    <glyph glyph-name="cacute" unicode="&#x107;" horiz-adv-x="472" 
d="M208 563l104 147h106v-9l-133 -138h-77zM298 492q78 0 119 -27l13 -75h-9q-43 31 -113 31q-82 0 -131 -49t-49 -131t50 -131.5t132 -49.5q73 0 118 37h9l-14 -76q-46 -32 -126 -32q-110 0 -180.5 69.5t-70.5 181.5q0 111 71.5 181.5t180.5 70.5z" />
    <glyph glyph-name="Cdotaccent" unicode="&#x10a;" horiz-adv-x="600" 
d="M354 732q-23 0 -38.5 15.5t-15.5 38.5t15.5 38t38.5 15t38.5 -15t15.5 -38t-15.5 -38.5t-38.5 -15.5zM383 644q106 0 159 -37l12 -85h-9q-21 17 -63.5 29.5t-90.5 12.5q-110 0 -179 -69t-69 -178q0 -110 70.5 -179t182.5 -69q103 0 158 47h10l-13 -86q-57 -41 -164 -41
q-147 0 -241 91.5t-94 234.5t93.5 236t237.5 93z" />
    <glyph glyph-name="cdotaccent" unicode="&#x10b;" horiz-adv-x="472" 
d="M278 585q-22 0 -36 14t-14 35t14 35t36 14t36 -14t14 -35t-14 -35t-36 -14zM298 492q78 0 119 -27l13 -75h-9q-43 31 -113 31q-82 0 -131 -49t-49 -131t50 -131.5t132 -49.5q73 0 118 37h9l-14 -76q-46 -32 -126 -32q-110 0 -180.5 69.5t-70.5 181.5q0 111 71.5 181.5
t180.5 70.5z" />
    <glyph glyph-name="Ccaron" unicode="&#x10c;" horiz-adv-x="600" 
d="M355 772l85 94h73l-114 -148h-86l-116 148h72zM383 644q106 0 159 -37l12 -85h-9q-21 17 -63.5 29.5t-90.5 12.5q-110 0 -179 -69t-69 -178q0 -110 70.5 -179t182.5 -69q103 0 158 47h10l-13 -86q-57 -41 -164 -41q-147 0 -241 91.5t-94 234.5t93.5 236t237.5 93z" />
    <glyph glyph-name="ccaron" unicode="&#x10d;" horiz-adv-x="472" 
d="M277 617l85 94h73l-114 -148h-86l-116 148h72zM298 492q78 0 119 -27l13 -75h-9q-43 31 -113 31q-82 0 -131 -49t-49 -131t50 -131.5t132 -49.5q73 0 118 37h9l-14 -76q-46 -32 -126 -32q-110 0 -180.5 69.5t-70.5 181.5q0 111 71.5 181.5t180.5 70.5z" />
    <glyph glyph-name="Dcaron" unicode="&#x10e;" horiz-adv-x="695" 
d="M388 718h-86l-116 148h72l86 -94l85 94h73zM316 634q151 0 237.5 -83.5t86.5 -230.5q0 -149 -86.5 -234.5t-235.5 -85.5h-221v634h219zM307 76q116 0 178.5 62t62.5 181q0 117 -62.5 178t-181.5 61h-120v-482h123z" />
    <glyph glyph-name="dcaron" unicode="&#x10f;" horiz-adv-x="586" 
d="M588 537v183h79v-11l-21 -172h-58zM268 -11q-98 0 -160 70.5t-62 180.5q0 111 67.5 181.5t171.5 70.5q46 0 84 -14.5t55 -32.5v255l81 16v-716h-73v77q-16 -34 -60.5 -61t-103.5 -27zM285 59q52 0 89 25t50 56v230q-15 19 -50 34.5t-76 15.5q-78 0 -123 -48.5t-45 -129.5
t42 -132t113 -51z" />
    <glyph glyph-name="Dcroat" unicode="&#x110;" horiz-adv-x="707" 
d="M329 634q151 0 237.5 -83.5t86.5 -230.5q0 -149 -86.5 -234.5t-235.5 -85.5h-221v278h-88v70h88v286h219zM320 76q116 0 178.5 62t62.5 181q0 117 -62.5 178t-181.5 61h-120v-210h150v-70h-150v-202h123z" />
    <glyph glyph-name="dcroat" unicode="&#x111;" horiz-adv-x="586" 
d="M560 635v-56h-55v-579h-73v77q-16 -34 -60.5 -61t-103.5 -27q-98 0 -160 70.5t-62 180.5q0 111 67.5 181.5t171.5 70.5q46 0 84 -14.5t55 -32.5v134h-157v56h157v65l81 16v-81h55zM424 140v230q-15 19 -50 34.5t-76 15.5q-78 0 -123 -48.5t-45 -129.5t42 -132t113 -51
q52 0 89 25t50 56z" />
    <glyph glyph-name="Emacron" unicode="&#x112;" horiz-adv-x="534" 
d="M158 758v67h260v-67h-260zM97 634h374l11 -76h-298v-209h243v-72h-243v-201h305l-11 -76h-381v634z" />
    <glyph glyph-name="emacron" unicode="&#x113;" horiz-adv-x="534" 
d="M410 672v-67h-260v67h260zM490 292q0 -34 -7 -57h-356q5 -83 53.5 -129.5t134.5 -46.5q49 1 88.5 14.5t58.5 31.5h9l-13 -71q-19 -17 -60 -31t-92 -14q-115 0 -187.5 69.5t-72.5 185.5q0 110 65.5 179t169.5 69q92 0 150.5 -54.5t58.5 -145.5zM130 300h281q0 59 -35 92.5
t-96 33.5q-57 0 -98 -31.5t-52 -94.5z" />
    <glyph glyph-name="Edotaccent" unicode="&#x116;" horiz-adv-x="534" 
d="M288 732q-23 0 -38.5 15.5t-15.5 38.5t15.5 38t38.5 15t38.5 -15t15.5 -38t-15.5 -38.5t-38.5 -15.5zM97 634h374l11 -76h-298v-209h243v-72h-243v-201h305l-11 -76h-381v634z" />
    <glyph glyph-name="edotaccent" unicode="&#x117;" horiz-adv-x="534" 
d="M281 585q-22 0 -36 14t-14 35t14 35t36 14t36 -14t14 -35t-14 -35t-36 -14zM490 292q0 -34 -7 -57h-356q5 -83 53.5 -129.5t134.5 -46.5q49 1 88.5 14.5t58.5 31.5h9l-13 -71q-19 -17 -60 -31t-92 -14q-115 0 -187.5 69.5t-72.5 185.5q0 110 65.5 179t169.5 69
q92 0 150.5 -54.5t58.5 -145.5zM130 300h281q0 59 -35 92.5t-96 33.5q-57 0 -98 -31.5t-52 -94.5z" />
    <glyph glyph-name="Eogonek" unicode="&#x118;" horiz-adv-x="534" 
d="M453 -130q17 0 25 5h9v-44q-22 -14 -54 -14q-42 0 -68.5 22t-26.5 58q0 64 63 103h-304v634h374l11 -76h-298v-209h243v-72h-243v-201h305l-11 -76q-29 -10 -49 -33.5t-20 -49.5q0 -20 11.5 -33.5t32.5 -13.5z" />
    <glyph glyph-name="eogonek" unicode="&#x119;" horiz-adv-x="534" 
d="M490 292q0 -34 -7 -57h-356q5 -83 53.5 -129.5t134.5 -46.5q49 1 88.5 14.5t58.5 31.5h9l-13 -71q-23 -21 -69 -34q-29 -10 -49 -33.5t-20 -49.5q0 -20 11.5 -33.5t32.5 -13.5q17 0 25 5h9v-44q-22 -14 -54 -14q-42 0 -68.5 22t-26.5 58q0 53 47 92q-111 3 -180.5 72.5
t-69.5 182.5q0 110 65.5 179t169.5 69q92 0 150.5 -54.5t58.5 -145.5zM130 300h281q0 59 -35 92.5t-96 33.5q-57 0 -98 -31.5t-52 -94.5z" />
    <glyph glyph-name="Ecaron" unicode="&#x11a;" horiz-adv-x="534" 
d="M289 772l85 94h73l-114 -148h-86l-116 148h72zM97 634h374l11 -76h-298v-209h243v-72h-243v-201h305l-11 -76h-381v634z" />
    <glyph glyph-name="ecaron" unicode="&#x11b;" horiz-adv-x="534" 
d="M324 563h-86l-116 148h72l86 -94l85 94h73zM490 292q0 -34 -7 -57h-356q5 -83 53.5 -129.5t134.5 -46.5q49 1 88.5 14.5t58.5 31.5h9l-13 -71q-19 -17 -60 -31t-92 -14q-115 0 -187.5 69.5t-72.5 185.5q0 110 65.5 179t169.5 69q92 0 150.5 -54.5t58.5 -145.5zM130 300
h281q0 59 -35 92.5t-96 33.5q-57 0 -98 -31.5t-52 -94.5z" />
    <glyph glyph-name="Gbreve" unicode="&#x11e;" horiz-adv-x="658" 
d="M354 722q-62 0 -101 39t-45 96h58q6 -34 29 -54.5t59 -20.5t59 20.5t28 54.5h58q-6 -57 -44.5 -96t-100.5 -39zM520 276l80 15v-245q-30 -22 -87.5 -39.5t-123.5 -17.5q-149 0 -243 90.5t-94 236.5q0 144 93 236t241 92q109 0 169 -39l12 -85h-9q-24 18 -69.5 31
t-97.5 13q-113 0 -181 -70t-68 -178q0 -111 69.5 -180t182.5 -69q80 0 126 30v179z" />
    <glyph glyph-name="gbreve" unicode="&#x11f;" horiz-adv-x="524" 
d="M247 569q-63 0 -101.5 39t-44.5 96h58q6 -34 29 -54.5t59 -20.5t59 20.5t28 54.5h58q-6 -57 -44.5 -96t-100.5 -39zM510 496v-61l-104 -7q38 -44 38 -104q0 -74 -54.5 -121.5t-140.5 -47.5q-37 0 -68 9l-33 -93h164q77 0 118 -31.5t41 -88.5q0 -69 -58.5 -107.5
t-163.5 -38.5q-126 0 -191 41l-14 72h8q76 -47 200 -47q145 0 145 75q0 59 -89 59h-232l-15 30l70 151q-78 49 -78 137q0 74 55 121.5t141 47.5q64 0 110 -26q31 13 78.5 21.5t72.5 8.5zM250 218q55 0 86.5 28.5t31.5 76.5q0 49 -32 77.5t-86 28.5q-55 0 -87 -28.5
t-32 -77.5q0 -48 32 -76.5t87 -28.5z" />
    <glyph glyph-name="Gdotaccent" unicode="&#x120;" horiz-adv-x="658" 
d="M353 732q-23 0 -38.5 15.5t-15.5 38.5t15.5 38t38.5 15t38.5 -15t15.5 -38t-15.5 -38.5t-38.5 -15.5zM520 276l80 15v-245q-30 -22 -87.5 -39.5t-123.5 -17.5q-149 0 -243 90.5t-94 236.5q0 144 93 236t241 92q109 0 169 -39l12 -85h-9q-24 18 -69.5 31t-97.5 13
q-113 0 -181 -70t-68 -178q0 -111 69.5 -180t182.5 -69q80 0 126 30v179z" />
    <glyph glyph-name="gdotaccent" unicode="&#x121;" horiz-adv-x="524" 
d="M247 585q-22 0 -36 14t-14 35t14 35t36 14t36 -14t14 -35t-14 -35t-36 -14zM510 496v-61l-104 -7q38 -44 38 -104q0 -74 -54.5 -121.5t-140.5 -47.5q-37 0 -68 9l-33 -93h164q77 0 118 -31.5t41 -88.5q0 -69 -58.5 -107.5t-163.5 -38.5q-126 0 -191 41l-14 72h8
q76 -47 200 -47q145 0 145 75q0 59 -89 59h-232l-15 30l70 151q-78 49 -78 137q0 74 55 121.5t141 47.5q64 0 110 -26q31 13 78.5 21.5t72.5 8.5zM250 218q55 0 86.5 28.5t31.5 76.5q0 49 -32 77.5t-86 28.5q-55 0 -87 -28.5t-32 -77.5q0 -48 32 -76.5t87 -28.5z" />
    <glyph glyph-name="Gcommaaccent" unicode="&#x122;" horiz-adv-x="658" 
d="M520 276l80 15v-245q-30 -22 -87.5 -39.5t-123.5 -17.5q-149 0 -243 90.5t-94 236.5q0 144 93 236t241 92q109 0 169 -39l12 -85h-9q-24 18 -69.5 31t-97.5 13q-113 0 -181 -70t-68 -178q0 -111 69.5 -180t182.5 -69q80 0 126 30v179zM333 -43h79v-26q0 -71 -47 -137
l-50 15q18 63 18 118v30z" />
    <glyph glyph-name="gcommaaccent" unicode="&#x123;" horiz-adv-x="524" 
d="M278 586v-30h-79v26q0 71 47 137l50 -15q-18 -63 -18 -118zM510 496v-61l-104 -7q38 -44 38 -104q0 -74 -54.5 -121.5t-140.5 -47.5q-37 0 -68 9l-33 -93h164q77 0 118 -31.5t41 -88.5q0 -69 -58.5 -107.5t-163.5 -38.5q-126 0 -191 41l-14 72h8q76 -47 200 -47
q145 0 145 75q0 59 -89 59h-232l-15 30l70 151q-78 49 -78 137q0 74 55 121.5t141 47.5q64 0 110 -26q31 13 78.5 21.5t72.5 8.5zM250 218q55 0 86.5 28.5t31.5 76.5q0 49 -32 77.5t-86 28.5q-55 0 -87 -28.5t-32 -77.5q0 -48 32 -76.5t87 -28.5z" />
    <glyph glyph-name="Hbar" unicode="&#x126;" horiz-adv-x="751" 
d="M716 497v-54h-62v-443h-87v281h-383v-281h-87v443h-58v54h58v137h87v-137h383v137h87v-137h62zM567 359v84h-383v-84h383z" />
    <glyph glyph-name="hbar" unicode="&#x127;" horiz-adv-x="573" 
d="M322 492q81 0 128.5 -49.5t47.5 -142.5v-300h-82v287q0 132 -115 132q-46 0 -83.5 -23t-55.5 -51v-345h-82v579h-53v56h53v65l82 16v-81h158v-56h-158v-167q62 80 160 80z" />
    <glyph glyph-name="Itilde" unicode="&#x128;" horiz-adv-x="281" 
d="M-18 796q18 21 46 36t55 15t67 -19.5t56 -19.5q37 0 66 39l33 -51q-15 -24 -42 -40.5t-56 -16.5q-25 0 -65.5 19t-61.5 19q-39 0 -68 -33zM97 0v634h87v-634h-87z" />
    <glyph glyph-name="itilde" unicode="&#x129;" horiz-adv-x="246" 
d="M-36 642q18 21 45.5 35.5t54.5 14.5q28 0 67.5 -20t54.5 -20q36 0 66 40l32 -48q-14 -23 -40.5 -40t-55.5 -17q-26 0 -66 20t-61 20q-39 0 -68 -33zM83 0v481h81v-481h-81z" />
    <glyph glyph-name="Imacron" unicode="&#x12a;" horiz-adv-x="281" 
d="M10 758v67h260v-67h-260zM97 0v634h87v-634h-87z" />
    <glyph glyph-name="imacron" unicode="&#x12b;" horiz-adv-x="246" 
d="M-7 605v67h260v-67h-260zM83 0v481h81v-481h-81z" />
    <glyph glyph-name="Iogonek" unicode="&#x12e;" horiz-adv-x="281" 
d="M177 -125h9v-44q-22 -14 -54 -14q-42 0 -68.5 22t-26.5 58q0 64 63 103h-3v634h87v-634h-7q-29 -10 -49 -33.5t-20 -49.5q0 -20 11.5 -33.5t32.5 -13.5q17 0 25 5z" />
    <glyph glyph-name="iogonek" unicode="&#x12f;" horiz-adv-x="247" 
d="M124 584q-25 0 -40.5 15t-15.5 39q0 23 15.5 38.5t40.5 15.5t40.5 -15.5t15.5 -38.5q0 -24 -15.5 -39t-40.5 -15zM133 -130q17 0 25 5h9v-44q-22 -14 -54 -14q-42 0 -68.5 22t-26.5 58q0 32 18 60t48 45v479h81v-481h-7q-29 -10 -49 -33.5t-20 -49.5q0 -20 11.5 -33.5
t32.5 -13.5z" />
    <glyph glyph-name="Idotaccent" unicode="&#x130;" horiz-adv-x="281" 
d="M140 732q-23 0 -38.5 15.5t-15.5 38.5t15.5 38t38.5 15t38.5 -15t15.5 -38t-15.5 -38.5t-38.5 -15.5zM97 0v634h87v-634h-87z" />
    <glyph glyph-name="dotlessi" unicode="&#x131;" horiz-adv-x="246" 
d="M83 0v481h81v-481h-81z" />
    <glyph glyph-name="IJ" unicode="&#x132;" horiz-adv-x="594" 
d="M97 0v634h87v-634h-87zM291 -81l-10 71h9q11 -9 46 -9q74 0 74 85v568h88v-570q0 -75 -36 -116t-105 -41q-42 0 -66 12z" />
    <glyph glyph-name="ij" unicode="&#x133;" horiz-adv-x="498" 
d="M123 584q-25 0 -41 15t-16 39q0 23 16 38.5t41 15.5t41.5 -15.5t16.5 -38.5q0 -24 -16.5 -39t-41.5 -15zM375 584q-25 0 -41 15t-16 39q0 23 16 38.5t41 15.5t41.5 -15.5t16.5 -38.5q0 -24 -16.5 -39t-41.5 -15zM83 0v481h81v-481h-81zM334 481h82v-524q0 -77 -32 -116
t-91 -39q-18 0 -44 6l-11 64h9q7 -4 23 -4q38 0 51 19.5t13 70.5v523z" />
    <glyph glyph-name="Kcommaaccent" unicode="&#x136;" horiz-adv-x="621" 
d="M352 367l253 -367h-102l-215 311l-106 -105v-206h-85v634h85v-329l322 329h94v-8zM295 -73v30h79v-26q0 -71 -47 -137l-50 15q18 63 18 118z" />
    <glyph glyph-name="kcommaaccent" unicode="&#x137;" horiz-adv-x="503" 
d="M80 700l79 16v-470l226 235h90v-8l-187 -194l206 -279h-88l-178 233l-69 -70v-163h-79v700zM230 -43h79v-26q0 -71 -47 -137l-50 15q18 63 18 118v30z" />
    <glyph glyph-name="kgreenlandic" unicode="&#x138;" horiz-adv-x="503" 
d="M80 481h79v-235l226 235h90v-8l-187 -194l206 -279h-88l-178 233l-69 -70v-163h-79v481z" />
    <glyph glyph-name="Lacute" unicode="&#x139;" horiz-adv-x="477" 
d="M308 854l-133 -138h-77l104 147h106v-9zM184 76h278l-11 -76h-354v634h87v-558z" />
    <glyph glyph-name="lacute" unicode="&#x13a;" horiz-adv-x="246" 
d="M51 790l104 147h106v-9l-133 -138h-77zM83 0v700l81 16v-716h-81z" />
    <glyph glyph-name="Lcommaaccent" unicode="&#x13b;" horiz-adv-x="477" 
d="M184 76h278l-11 -76h-354v634h87v-558zM237 -73v30h79v-26q0 -71 -47 -137l-50 15q18 63 18 118z" />
    <glyph glyph-name="lcommaaccent" unicode="&#x13c;" horiz-adv-x="246" 
d="M83 0v700l81 16v-716h-81zM82 -43h79v-26q0 -71 -47 -137l-50 15q18 63 18 118v30z" />
    <glyph glyph-name="Lcaron" unicode="&#x13d;" horiz-adv-x="489" 
d="M184 76h278l-11 -76h-354v634h87v-558zM405 623l-21 -191h-58v202h79v-11z" />
    <glyph glyph-name="lcaron" unicode="&#x13e;" horiz-adv-x="246" 
d="M246 537v183h79v-11l-21 -172h-58zM83 0v700l81 16v-716h-81z" />
    <glyph glyph-name="Ldot" unicode="&#x13f;" horiz-adv-x="483" 
d="M184 76h278l-11 -76h-354v634h87v-558zM368 374v-99h-81v99h81z" />
    <glyph glyph-name="ldot" unicode="&#x140;" horiz-adv-x="292" 
d="M83 0v700l81 16v-716h-81zM208 275v99h81v-99h-81z" />
    <glyph glyph-name="Lslash" unicode="&#x141;" horiz-adv-x="481" 
d="M188 76h278l-11 -76h-354v267l-83 -37v71l83 38v295h87v-255l102 46v-73l-102 -46v-230z" />
    <glyph glyph-name="lslash" unicode="&#x142;" horiz-adv-x="311" 
d="M282 467v-72l-85 -42v-353h-81v314l-83 -41v70l83 41v316l81 16v-291z" />
    <glyph glyph-name="Nacute" unicode="&#x143;" horiz-adv-x="749" 
d="M311 716l104 147h106v-9l-133 -138h-77zM97 0v634h72l398 -504v504h85v-634h-70l-400 496v-496h-85z" />
    <glyph glyph-name="nacute" unicode="&#x144;" horiz-adv-x="573" 
d="M217 563l104 147h106v-9l-133 -138h-77zM80 481h76v-77q62 88 166 88q81 0 128.5 -49.5t47.5 -142.5v-300h-82v287q0 132 -115 132q-46 0 -83.5 -23t-55.5 -51v-345h-82v481z" />
    <glyph glyph-name="Ncommaaccent" unicode="&#x145;" horiz-adv-x="749" 
d="M97 0v634h72l398 -504v504h85v-634h-70l-400 496v-496h-85zM338 -43h79v-26q0 -71 -47 -137l-50 15q18 63 18 118v30z" />
    <glyph glyph-name="ncommaaccent" unicode="&#x146;" horiz-adv-x="573" 
d="M80 481h76v-77q62 88 166 88q81 0 128.5 -49.5t47.5 -142.5v-300h-82v287q0 132 -115 132q-46 0 -83.5 -23t-55.5 -51v-345h-82v481zM248 -43h79v-26q0 -71 -47 -137l-50 15q18 63 18 118v30z" />
    <glyph glyph-name="Ncaron" unicode="&#x147;" horiz-adv-x="749" 
d="M381 772l85 94h73l-114 -148h-86l-116 148h72zM97 0v634h72l398 -504v504h85v-634h-70l-400 496v-496h-85z" />
    <glyph glyph-name="ncaron" unicode="&#x148;" horiz-adv-x="573" 
d="M286 617l85 94h73l-114 -148h-86l-116 148h72zM80 481h76v-77q62 88 166 88q81 0 128.5 -49.5t47.5 -142.5v-300h-82v287q0 132 -115 132q-46 0 -83.5 -23t-55.5 -51v-345h-82v481z" />
    <glyph glyph-name="napostrophe" unicode="&#x149;" horiz-adv-x="678" 
d="M49 426l-43 15v8q13 39 13 142v43h78v-43q0 -49 -14.5 -94t-33.5 -71zM185 481h76v-77q62 88 166 88q81 0 128.5 -49.5t47.5 -142.5v-300h-82v287q0 132 -115 132q-46 0 -83.5 -23t-55.5 -51v-345h-82v481z" />
    <glyph glyph-name="Eng" unicode="&#x14a;" horiz-adv-x="749" 
d="M567 634h85v-654q0 -80 -40.5 -114t-87.5 -34q-5 0 -32 3l-23 55l5 5q14 -2 24 -2q32 0 52 21.5t20 64.5v36l-388 481v-496h-85v634h72l398 -504v504z" />
    <glyph glyph-name="eng" unicode="&#x14b;" horiz-adv-x="573" 
d="M322 492q81 0 128.5 -49.5t47.5 -142.5v-280q0 -77 -49.5 -112.5t-126.5 -34.5l-11 59l5 7q41 -4 70.5 15t29.5 67v266q0 132 -115 132q-46 0 -83.5 -23t-55.5 -51v-345h-82v481h76v-77q62 88 166 88z" />
    <glyph glyph-name="Omacron" unicode="&#x14c;" horiz-adv-x="741" 
d="M242 758v67h260v-67h-260zM371 -11q-139 0 -229 92.5t-90 235.5t90 235t229 92q138 0 228 -92t90 -235t-90 -235.5t-228 -92.5zM371 68q102 0 166.5 69.5t64.5 179.5t-64.5 179t-166.5 69q-103 0 -167 -69t-64 -179t64.5 -179.5t166.5 -69.5z" />
    <glyph glyph-name="omacron" unicode="&#x14d;" horiz-adv-x="580" 
d="M159 605v67h260v-67h-260zM290 -11q-106 0 -175 71.5t-69 181.5q0 109 69 179.5t175 70.5q107 0 175.5 -70.5t68.5 -179.5q0 -110 -68.5 -181.5t-175.5 -71.5zM290 60q75 0 120 49.5t45 132.5q0 81 -45 130t-120 49t-119.5 -49t-44.5 -130q0 -83 44.5 -132.5t119.5 -49.5
z" />
    <glyph glyph-name="Ohungarumlaut" unicode="&#x150;" horiz-adv-x="741" 
d="M249 716l81 147h92v-9l-102 -138h-71zM388 716l92 147h94v-9l-112 -138h-74zM371 -11q-139 0 -229 92.5t-90 235.5t90 235t229 92q138 0 228 -92t90 -235t-90 -235.5t-228 -92.5zM371 68q102 0 166.5 69.5t64.5 179.5t-64.5 179t-166.5 69q-103 0 -167 -69t-64 -179
t64.5 -179.5t166.5 -69.5z" />
    <glyph glyph-name="ohungarumlaut" unicode="&#x151;" horiz-adv-x="580" 
d="M188 563l81 147h92v-9l-102 -138h-71zM327 563l92 147h94v-9l-112 -138h-74zM290 -11q-106 0 -175 71.5t-69 181.5q0 109 69 179.5t175 70.5q107 0 175.5 -70.5t68.5 -179.5q0 -110 -68.5 -181.5t-175.5 -71.5zM290 60q75 0 120 49.5t45 132.5q0 81 -45 130t-120 49
t-119.5 -49t-44.5 -130q0 -83 44.5 -132.5t119.5 -49.5z" />
    <glyph glyph-name="OE" unicode="&#x152;" horiz-adv-x="1040" 
d="M690 76h305l-11 -76h-371v110q-89 -121 -242 -121q-139 0 -229 92.5t-90 235.5t90 235t229 92q154 0 242 -120v110h364l11 -76h-298v-209h245v-72h-245v-201zM371 68q102 0 166.5 69.5t64.5 179.5t-64.5 179t-166.5 69q-103 0 -167 -69t-64 -179t64.5 -179.5t166.5 -69.5
z" />
    <glyph glyph-name="oe" unicode="&#x153;" horiz-adv-x="935" 
d="M287 492q64 0 116 -30.5t82 -83.5q29 53 80 83.5t117 30.5q93 0 151.5 -55t58.5 -145q0 -34 -7 -57h-355q4 -82 52.5 -129t131.5 -47q50 0 90.5 14t59.5 32h9l-13 -71q-19 -17 -60.5 -31t-91.5 -14q-74 0 -131 31t-89 87q-30 -55 -83 -86.5t-118 -31.5q-105 0 -173 71.5
t-68 181.5q0 108 68 179t173 71zM681 426q-59 0 -100.5 -33.5t-50.5 -100.5h284q-1 66 -37 100t-96 34zM287 421q-72 0 -116.5 -49.5t-44.5 -129.5q0 -81 44.5 -131.5t116.5 -50.5q71 0 115 50.5t44 131.5q0 80 -44 129.5t-115 49.5z" />
    <glyph glyph-name="Racute" unicode="&#x154;" horiz-adv-x="617" 
d="M443 854l-133 -138h-77l104 147h106v-9zM565 0h-94l-146 233h-12h-129v-233h-87v634h233q111 0 169.5 -52.5t58.5 -143.5q0 -74 -38.5 -123t-107.5 -69zM184 560v-258h126q157 0 157 129t-138 129h-145z" />
    <glyph glyph-name="racute" unicode="&#x155;" horiz-adv-x="374" 
d="M150 563l104 147h106v-9l-133 -138h-77zM80 0v481h75v-99q32 49 85.5 77.5t105.5 29.5l15 -89h-9q-12 4 -32 4q-43 0 -90 -26t-68 -64v-314h-82z" />
    <glyph glyph-name="Rcommaaccent" unicode="&#x156;" horiz-adv-x="617" 
d="M412 246l153 -246h-94l-146 233h-12h-129v-233h-87v634h233q111 0 169.5 -52.5t58.5 -143.5q0 -74 -38.5 -123t-107.5 -69zM184 560v-258h126q157 0 157 129t-138 129h-145zM264 -73v30h79v-26q0 -71 -47 -137l-50 15q18 63 18 118z" />
    <glyph glyph-name="rcommaaccent" unicode="&#x157;" horiz-adv-x="374" 
d="M80 0v481h75v-99q32 49 85.5 77.5t105.5 29.5l15 -89h-9q-12 4 -32 4q-43 0 -90 -26t-68 -64v-314h-82zM81 -43h79v-26q0 -71 -47 -137l-50 15q18 63 18 118v30z" />
    <glyph glyph-name="Rcaron" unicode="&#x158;" horiz-adv-x="617" 
d="M347 718h-86l-116 148h72l86 -94l85 94h73zM565 0h-94l-146 233h-12h-129v-233h-87v634h233q111 0 169.5 -52.5t58.5 -143.5q0 -74 -38.5 -123t-107.5 -69zM184 560v-258h126q157 0 157 129t-138 129h-145z" />
    <glyph glyph-name="rcaron" unicode="&#x159;" horiz-adv-x="374" 
d="M219 617l85 94h73l-114 -148h-86l-116 148h72zM80 0v481h75v-99q32 49 85.5 77.5t105.5 29.5l15 -89h-9q-12 4 -32 4q-43 0 -90 -26t-68 -64v-314h-82z" />
    <glyph glyph-name="Sacute" unicode="&#x15a;" horiz-adv-x="520" 
d="M191 716l104 147h106v-9l-133 -138h-77zM252 -11q-54 0 -105 14.5t-80 35.5l-10 84h9q27 -24 79 -41t104 -17q60 0 96.5 27t36.5 73q0 41 -33.5 70t-81 48.5t-95.5 40.5t-81.5 58.5t-33.5 90.5q0 75 61 123.5t162 48.5q100 0 158 -35l10 -80h-9q-61 40 -155 40
q-64 0 -101 -24.5t-37 -64.5q0 -35 33.5 -60t81 -43t95.5 -40.5t81.5 -64t33.5 -99.5q0 -84 -60 -134.5t-159 -50.5z" />
    <glyph glyph-name="sacute" unicode="&#x15b;" horiz-adv-x="426" 
d="M147 563l104 147h106v-9l-133 -138h-77zM234 492q77 0 122 -25l12 -69h-9q-43 30 -120 30q-50 0 -77.5 -19.5t-27.5 -48.5q0 -27 24.5 -42.5t75.5 -33.5q34 -13 53.5 -22.5t45 -27.5t38 -44t12.5 -60q0 -65 -46.5 -102t-123.5 -39h-4q-92 0 -151 40l-13 73h8
q67 -49 150 -49q49 0 75 19.5t26 49.5q0 33 -27.5 52t-82.5 39q-31 11 -51 21t-43.5 26.5t-35.5 40t-12 53.5q0 61 50.5 99.5t131.5 38.5z" />
    <glyph glyph-name="Scedilla" unicode="&#x15e;" horiz-adv-x="520" 
d="M471 174q0 -79 -54 -129t-144 -55l-19 -34h38q39 0 61.5 -21t22.5 -54q-1 -38 -32 -60.5t-81 -22.5q-54 0 -81 21l-7 49h9q35 -22 76 -22q58 0 58 34q0 28 -35 28h-86l-9 21l38 61q-100 6 -159 49l-10 84h9q27 -24 79 -41t104 -17q60 0 96.5 27t36.5 73q0 41 -33.5 70
t-81 48.5t-95.5 40.5t-81.5 58.5t-33.5 90.5q0 75 61 123.5t162 48.5q100 0 158 -35l10 -80h-9q-61 40 -155 40q-64 0 -101 -24.5t-37 -64.5q0 -35 33.5 -60t81 -43t95.5 -40.5t81.5 -64t33.5 -99.5z" />
    <glyph glyph-name="scedilla" unicode="&#x15f;" horiz-adv-x="426" 
d="M383 130q0 -61 -42 -98t-112 -42l-19 -34h38q39 0 61.5 -21t22.5 -54q-1 -38 -32 -60.5t-81 -22.5q-54 0 -81 21l-7 49h9q35 -22 76 -22q58 0 58 34q0 28 -35 28h-86l-9 21l38 61q-76 6 -124 39l-13 73h8q67 -49 150 -49q49 0 75 19.5t26 49.5q0 33 -27.5 52t-82.5 39
q-31 11 -51 21t-43.5 26.5t-35.5 40t-12 53.5q0 61 50.5 99.5t131.5 38.5q77 0 122 -25l12 -69h-9q-43 30 -120 30q-50 0 -77.5 -19.5t-27.5 -48.5q0 -27 24.5 -42.5t75.5 -33.5q34 -13 53.5 -22.5t45 -27.5t38 -44t12.5 -60z" />
    <glyph glyph-name="Scaron" unicode="&#x160;" horiz-adv-x="520" 
d="M261 772l85 94h73l-114 -148h-86l-116 148h72zM252 -11q-54 0 -105 14.5t-80 35.5l-10 84h9q27 -24 79 -41t104 -17q60 0 96.5 27t36.5 73q0 41 -33.5 70t-81 48.5t-95.5 40.5t-81.5 58.5t-33.5 90.5q0 75 61 123.5t162 48.5q100 0 158 -35l10 -80h-9q-61 40 -155 40
q-64 0 -101 -24.5t-37 -64.5q0 -35 33.5 -60t81 -43t95.5 -40.5t81.5 -64t33.5 -99.5q0 -84 -60 -134.5t-159 -50.5z" />
    <glyph glyph-name="scaron" unicode="&#x161;" horiz-adv-x="426" 
d="M216 617l85 94h73l-114 -148h-86l-116 148h72zM234 492q77 0 122 -25l12 -69h-9q-43 30 -120 30q-50 0 -77.5 -19.5t-27.5 -48.5q0 -27 24.5 -42.5t75.5 -33.5q34 -13 53.5 -22.5t45 -27.5t38 -44t12.5 -60q0 -65 -46.5 -102t-123.5 -39h-4q-92 0 -151 40l-13 73h8
q67 -49 150 -49q49 0 75 19.5t26 49.5q0 33 -27.5 52t-82.5 39q-31 11 -51 21t-43.5 26.5t-35.5 40t-12 53.5q0 61 50.5 99.5t131.5 38.5z" />
    <glyph glyph-name="uni0162" unicode="&#x162;" horiz-adv-x="534" 
d="M314 0h-22l-25 -44h38q39 0 61.5 -21t22.5 -54q-1 -38 -32 -60.5t-81 -22.5q-54 0 -81 21l-7 49h9q35 -22 76 -22q58 0 58 34q0 28 -35 28h-86l-9 21l44 71h-19v558h-210v76h509l-12 -76h-199v-558z" />
    <glyph glyph-name="uni0163" unicode="&#x163;" horiz-adv-x="383" 
d="M257 -10h-14l-20 -34h38q39 0 61.5 -21t22.5 -54q-1 -38 -32 -60.5t-81 -22.5q-54 0 -81 21l-7 49h9q35 -22 76 -22q58 0 58 34q0 28 -35 28h-86l-9 21l43 69q-46 14 -73.5 52t-27.5 97v265h-75v16l133 150h23v-97h182l-13 -69h-169v-257q0 -45 23 -70.5t70 -25.5
q51 0 81 24h9l-14 -70q-35 -23 -92 -23z" />
    <glyph glyph-name="Tcaron" unicode="&#x164;" horiz-adv-x="534" 
d="M317 718h-86l-116 148h72l86 -94l85 94h73zM525 634l-12 -76h-199v-558h-88v558h-210v76h509z" />
    <glyph glyph-name="tcaron" unicode="&#x165;" horiz-adv-x="383" 
d="M262 537v183h79v-11l-21 -172h-58zM257 -10q-70 0 -114 40.5t-44 116.5v265h-75v16l133 150h23v-97h182l-13 -69h-169v-257q0 -45 23 -70.5t70 -25.5q51 0 81 24h9l-14 -70q-35 -23 -92 -23z" />
    <glyph glyph-name="Tbar" unicode="&#x166;" horiz-adv-x="534" 
d="M513 558h-199v-215h131v-63h-131v-280h-88v280h-128v63h128v215h-210v76h509z" />
    <glyph glyph-name="tbar" unicode="&#x167;" horiz-adv-x="383" 
d="M354 83h9l-14 -70q-35 -23 -92 -23q-70 0 -114 40.5t-44 116.5v73h-71v56h71v136h-75v16l133 150h23v-97h182l-13 -69h-169v-136h134v-56h-134v-65q0 -45 23 -70.5t70 -25.5q51 0 81 24z" />
    <glyph glyph-name="Utilde" unicode="&#x168;" horiz-adv-x="715" 
d="M201 796q18 21 46 36t55 15t67 -19.5t56 -19.5q37 0 66 39l33 -51q-15 -24 -42 -40.5t-56 -16.5q-25 0 -65.5 19t-61.5 19q-39 0 -68 -33zM357 -10q-126 0 -198.5 80t-72.5 216v348h88v-351q0 -101 47.5 -157t135.5 -56q89 0 136.5 56t47.5 157v351h87v-348
q0 -136 -72.5 -216t-198.5 -80z" />
    <glyph glyph-name="utilde" unicode="&#x169;" horiz-adv-x="575" 
d="M125 642q18 21 45.5 35.5t54.5 14.5q28 0 67.5 -20t54.5 -20q36 0 66 40l32 -48q-14 -23 -40.5 -40t-55.5 -17q-26 0 -66 20t-61 20q-39 0 -68 -33zM248 -11q-79 0 -125.5 47t-46.5 136v309h81v-304q0 -56 29 -85.5t84 -29.5q47 0 86.5 24t56.5 55v340h81v-481h-73v83
q-21 -37 -67.5 -65.5t-105.5 -28.5z" />
    <glyph glyph-name="Umacron" unicode="&#x16a;" horiz-adv-x="715" 
d="M229 758v67h260v-67h-260zM357 -10q-126 0 -198.5 80t-72.5 216v348h88v-351q0 -101 47.5 -157t135.5 -56q89 0 136.5 56t47.5 157v351h87v-348q0 -136 -72.5 -216t-198.5 -80z" />
    <glyph glyph-name="umacron" unicode="&#x16b;" horiz-adv-x="575" 
d="M154 605v67h260v-67h-260zM248 -11q-79 0 -125.5 47t-46.5 136v309h81v-304q0 -56 29 -85.5t84 -29.5q47 0 86.5 24t56.5 55v340h81v-481h-73v83q-21 -37 -67.5 -65.5t-105.5 -28.5z" />
    <glyph glyph-name="Uring" unicode="&#x16e;" horiz-adv-x="715" 
d="M359 699q-44 0 -73.5 28t-29.5 71q0 42 29.5 70.5t73.5 28.5t73.5 -28.5t29.5 -70.5q0 -43 -29.5 -71t-73.5 -28zM359 746q23 0 37 14t14 39q0 22 -15 36.5t-36 14.5q-23 0 -36.5 -14.5t-13.5 -39.5q0 -21 14.5 -35.5t35.5 -14.5zM357 -10q-126 0 -198.5 80t-72.5 216
v348h88v-351q0 -101 47.5 -157t135.5 -56q89 0 136.5 56t47.5 157v351h87v-348q0 -136 -72.5 -216t-198.5 -80z" />
    <glyph glyph-name="uring" unicode="&#x16f;" horiz-adv-x="575" 
d="M285 546q-44 0 -73.5 28t-29.5 71q0 42 29.5 70.5t73.5 28.5t73.5 -28.5t29.5 -70.5q0 -43 -29.5 -71t-73.5 -28zM285 593q23 0 37 14t14 39q0 22 -15 36.5t-36 14.5q-23 0 -36.5 -14.5t-13.5 -39.5q0 -21 14.5 -35.5t35.5 -14.5zM248 -11q-79 0 -125.5 47t-46.5 136v309
h81v-304q0 -56 29 -85.5t84 -29.5q47 0 86.5 24t56.5 55v340h81v-481h-73v83q-21 -37 -67.5 -65.5t-105.5 -28.5z" />
    <glyph glyph-name="Uhungarumlaut" unicode="&#x170;" horiz-adv-x="715" 
d="M236 716l81 147h92v-9l-102 -138h-71zM375 716l92 147h94v-9l-112 -138h-74zM357 -10q-126 0 -198.5 80t-72.5 216v348h88v-351q0 -101 47.5 -157t135.5 -56q89 0 136.5 56t47.5 157v351h87v-348q0 -136 -72.5 -216t-198.5 -80z" />
    <glyph glyph-name="uhungarumlaut" unicode="&#x171;" horiz-adv-x="575" 
d="M183 563l81 147h92v-9l-102 -138h-71zM322 563l92 147h94v-9l-112 -138h-74zM248 -11q-79 0 -125.5 47t-46.5 136v309h81v-304q0 -56 29 -85.5t84 -29.5q47 0 86.5 24t56.5 55v340h81v-481h-73v83q-21 -37 -67.5 -65.5t-105.5 -28.5z" />
    <glyph glyph-name="Uogonek" unicode="&#x172;" horiz-adv-x="715" 
d="M541 634h87v-348q0 -113 -51 -188.5t-143 -98.5q-28 -11 -47 -33.5t-19 -48.5q0 -20 11.5 -33.5t32.5 -13.5q17 0 25 5h9v-44q-22 -14 -54 -14q-42 0 -68.5 22t-26.5 58q0 55 49 93q-122 4 -191 83.5t-69 212.5v348h88v-351q0 -101 47.5 -157t135.5 -56q89 0 136.5 56
t47.5 157v351z" />
    <glyph glyph-name="uogonek" unicode="&#x173;" horiz-adv-x="575" 
d="M488 -125h9v-44q-22 -14 -54 -14q-42 0 -68.5 22t-26.5 58q0 34 20 63t53 46v77q-21 -37 -67.5 -65.5t-105.5 -28.5q-79 0 -125.5 47t-46.5 136v309h81v-304q0 -56 29 -85.5t84 -29.5q47 0 86.5 24t56.5 55v340h81v-481h-6q-29 -10 -49 -33.5t-20 -49.5q0 -20 11.5 -33.5
t32.5 -13.5q17 0 25 5z" />
    <glyph glyph-name="Wcircumflex" unicode="&#x174;" horiz-adv-x="956" 
d="M476 810l-86 -94h-72l116 148h86l114 -148h-73zM15 634h91l169 -509l191 517h23l198 -515l160 507h89l-202 -634h-73l-183 474l-176 -474h-73z" />
    <glyph glyph-name="wcircumflex" unicode="&#x175;" horiz-adv-x="755" 
d="M378 657l-86 -94h-72l116 148h86l114 -148h-73zM14 481h87l121 -365l147 374h18l147 -374l121 365h84l-166 -481h-66l-129 334l-129 -334h-66z" />
    <glyph glyph-name="Ycircumflex" unicode="&#x176;" horiz-adv-x="591" 
d="M297 810l-86 -94h-72l116 148h86l114 -148h-73zM15 634h99l182 -276l183 276h96l-235 -347v-287h-89v287z" />
    <glyph glyph-name="ycircumflex" unicode="&#x177;" horiz-adv-x="488" 
d="M244 657l-86 -94h-72l116 148h86l114 -148h-73zM13 481h89l150 -382l135 382h86l-205 -534q-29 -76 -66 -109.5t-92 -33.5q-27 0 -43 5l-11 67h9q12 -5 29 -5q33 0 54 19t35 59l27 69z" />
    <glyph glyph-name="Ydieresis" unicode="&#x178;" horiz-adv-x="591" 
d="M198 837q22 0 37 -15.5t15 -37.5t-15 -37.5t-37 -15.5t-37.5 15.5t-15.5 37.5t15.5 37.5t37.5 15.5zM394 837q23 0 38.5 -15.5t15.5 -37.5t-15.5 -37.5t-38.5 -15.5q-22 0 -37 15.5t-15 37.5t15 37.5t37 15.5zM15 634h99l182 -276l183 276h96l-235 -347v-287h-89v287z
" />
    <glyph glyph-name="Zacute" unicode="&#x179;" horiz-adv-x="556" 
d="M220 716l104 147h106v-9l-133 -138h-77zM46 634h476l-354 -559h354v-75h-492l357 559h-352z" />
    <glyph glyph-name="zacute" unicode="&#x17a;" horiz-adv-x="451" 
d="M159 563l104 147h106v-9l-133 -138h-77zM26 0l274 416h-260l14 65h366v-8l-268 -409h260v-64h-386z" />
    <glyph glyph-name="Zdotaccent" unicode="&#x17b;" horiz-adv-x="556" 
d="M289 732q-23 0 -38.5 15.5t-15.5 38.5t15.5 38t38.5 15t38.5 -15t15.5 -38t-15.5 -38.5t-38.5 -15.5zM46 634h476l-354 -559h354v-75h-492l357 559h-352z" />
    <glyph glyph-name="zdotaccent" unicode="&#x17c;" horiz-adv-x="451" 
d="M229 585q-22 0 -36 14t-14 35t14 35t36 14t36 -14t14 -35t-14 -35t-36 -14zM26 0l274 416h-260l14 65h366v-8l-268 -409h260v-64h-386z" />
    <glyph glyph-name="Zcaron" unicode="&#x17d;" horiz-adv-x="556" 
d="M290 772l85 94h73l-114 -148h-86l-116 148h72zM46 634h476l-354 -559h354v-75h-492l357 559h-352z" />
    <glyph glyph-name="zcaron" unicode="&#x17e;" horiz-adv-x="451" 
d="M228 617l85 94h73l-114 -148h-86l-116 148h72zM26 0l274 416h-260l14 65h366v-8l-268 -409h260v-64h-386z" />
    <glyph glyph-name="florin" unicode="&#x192;" horiz-adv-x="457" 
d="M374 719q40 0 64 -10l5 -69h-10q-18 11 -51 11q-89 0 -100 -87l-11 -86h144l-22 -69h-130l-42 -343q-20 -161 -152 -161q-46 0 -66 13l-5 66h9q17 -11 48 -11q40 0 59.5 22t25.5 71l42 343h-80l2 15l85 45l11 95q8 69 55.5 112t118.5 43z" />
    <glyph glyph-name="uni01EA" unicode="&#x1ea;" horiz-adv-x="741" 
d="M454 -1q-28 -11 -47 -33.5t-19 -48.5q0 -20 11.5 -33.5t32.5 -13.5q17 0 25 5h9v-44q-22 -14 -54 -14q-42 0 -68.5 22t-26.5 58q0 53 47 92q-136 2 -224 94.5t-88 233.5q0 143 90 235t229 92q138 0 228 -92t90 -235q0 -120 -64.5 -205.5t-170.5 -112.5zM140 317
q0 -110 64.5 -179.5t166.5 -69.5t166.5 69.5t64.5 179.5t-64.5 179t-166.5 69q-103 0 -167 -69t-64 -179z" />
    <glyph glyph-name="uni01EB" unicode="&#x1eb;" horiz-adv-x="580" 
d="M360 -2q-27 -11 -45.5 -33.5t-18.5 -47.5q0 -20 11.5 -33.5t32.5 -13.5q17 0 25 5h9v-44q-22 -14 -54 -14q-42 0 -68.5 22t-26.5 58q0 53 48 93q-100 6 -163.5 76t-63.5 176q0 109 69 179.5t175 70.5q107 0 175.5 -70.5t68.5 -179.5q0 -91 -47.5 -156.5t-126.5 -87.5z
M126 242q0 -83 44.5 -132.5t119.5 -49.5t120 49.5t45 132.5q0 81 -45 130t-120 49t-119.5 -49t-44.5 -130z" />
    <glyph glyph-name="AEacute" unicode="&#x1fc;" horiz-adv-x="887" 
d="M689 854l-133 -138h-77l104 147h106v-9zM537 76h305l-11 -76h-381v132h-280l-86 -132h-94l413 634h421l11 -76h-298v-209h243v-72h-243v-201zM212 201h238v369z" />
    <glyph glyph-name="aeacute" unicode="&#x1fd;" horiz-adv-x="859" 
d="M355 563l104 147h106v-9l-133 -138h-77zM247 492q132 0 170 -101q63 100 189 100q93 0 151 -55t58 -142q0 -27 -7 -62h-355q4 -79 53.5 -126t133.5 -47q49 1 88.5 15t58.5 31h9l-13 -71q-20 -17 -60.5 -31t-90.5 -14q-147 0 -216 115q-24 -48 -79.5 -82t-124.5 -34
q-77 0 -124.5 39t-47.5 105q0 67 49 108t139 41h132v33q0 54 -32.5 81t-92.5 27q-101 0 -157 -50h-9l13 68q20 21 64 36.5t101 15.5zM604 425q-58 0 -100 -33.5t-51 -102.5h283q1 68 -35.5 102t-96.5 34zM242 226q-61 0 -91 -24t-30 -65q0 -39 28 -64t77 -25q44 0 81 23
t53 54v101h-118z" />
    <glyph glyph-name="Oslashacute" unicode="&#x1fe;" horiz-adv-x="746" 
d="M510 854l-133 -138h-77l104 147h106v-9zM605 548q86 -92 86 -231q0 -143 -90 -235.5t-228 -92.5q-105 0 -186 56l-71 -86l-38 31l71 86q-95 93 -95 241q0 143 90 235t229 92q112 0 195 -63l73 88l39 -31zM142 317q0 -107 61 -176l313 377q-61 47 -143 47q-103 0 -167 -69
t-64 -179zM373 68q102 0 166.5 69.5t64.5 179.5q0 99 -53 166l-311 -375q55 -40 133 -40z" />
    <glyph glyph-name="oslashacute" unicode="&#x1ff;" horiz-adv-x="590" 
d="M440 701l-133 -138h-77l104 147h106v-9zM547 489l-68 -78q59 -69 59 -169q0 -110 -68.5 -181.5t-175.5 -71.5q-83 0 -144 45l-60 -69l-37 31l61 70q-64 70 -64 176q0 109 69 179.5t175 70.5q88 0 150 -48l66 76zM130 242q0 -73 34 -119l232 266q-41 32 -102 32
q-75 0 -119.5 -49t-44.5 -130zM459 242q0 65 -30 111l-231 -264q40 -29 96 -29q75 0 120 49.5t45 132.5z" />
    <glyph glyph-name="Scommaaccent" unicode="&#x218;" horiz-adv-x="520" 
d="M252 -11q-54 0 -105 14.5t-80 35.5l-10 84h9q27 -24 79 -41t104 -17q60 0 96.5 27t36.5 73q0 41 -33.5 70t-81 48.5t-95.5 40.5t-81.5 58.5t-33.5 90.5q0 75 61 123.5t162 48.5q100 0 158 -35l10 -80h-9q-61 40 -155 40q-64 0 -101 -24.5t-37 -64.5q0 -35 33.5 -60
t81 -43t95.5 -40.5t81.5 -64t33.5 -99.5q0 -84 -60 -134.5t-159 -50.5zM217 -43h79v-26q0 -71 -47 -137l-50 15q18 63 18 118v30z" />
    <glyph glyph-name="scommaaccent" unicode="&#x219;" horiz-adv-x="426" 
d="M234 492q77 0 122 -25l12 -69h-9q-43 30 -120 30q-50 0 -77.5 -19.5t-27.5 -48.5q0 -27 24.5 -42.5t75.5 -33.5q34 -13 53.5 -22.5t45 -27.5t38 -44t12.5 -60q0 -65 -46.5 -102t-123.5 -39h-4q-92 0 -151 40l-13 73h8q67 -49 150 -49q49 0 75 19.5t26 49.5q0 33 -27.5 52
t-82.5 39q-31 11 -51 21t-43.5 26.5t-35.5 40t-12 53.5q0 61 50.5 99.5t131.5 38.5zM173 -43h79v-26q0 -71 -47 -137l-50 15q18 63 18 118v30z" />
    <glyph glyph-name="uni021A" unicode="&#x21a;" horiz-adv-x="534" 
d="M525 634l-12 -76h-199v-558h-88v558h-210v76h509zM230 -73v30h79v-26q0 -71 -47 -137l-50 15q18 63 18 118z" />
    <glyph glyph-name="uni021B" unicode="&#x21b;" horiz-adv-x="383" 
d="M257 -10q-70 0 -114 40.5t-44 116.5v265h-75v16l133 150h23v-97h182l-13 -69h-169v-257q0 -45 23 -70.5t70 -25.5q51 0 81 24h9l-14 -70q-35 -23 -92 -23zM186 -43h79v-26q0 -71 -47 -137l-50 15q18 63 18 118v30z" />
    <glyph glyph-name="uni0237" unicode="&#x237;" horiz-adv-x="252" 
d="M88 481h82v-524q0 -77 -32 -116t-91 -39q-18 0 -44 6l-11 64h9q7 -4 23 -4q38 0 51 19.5t13 70.5v523z" />
    <glyph glyph-name="circumflex" unicode="&#x2c6;" horiz-adv-x="316" 
d="M158 657l-86 -94h-72l116 148h86l114 -148h-73z" />
    <glyph glyph-name="caron" unicode="&#x2c7;" horiz-adv-x="316" 
d="M158 617l85 94h73l-114 -148h-86l-116 148h72z" />
    <glyph glyph-name="breve" unicode="&#x2d8;" horiz-adv-x="291" 
d="M146 569q-62 0 -101 39t-45 96h58q6 -34 29 -54.5t59 -20.5t59 20.5t28 54.5h58q-6 -57 -44.5 -96t-100.5 -39z" />
    <glyph glyph-name="dotaccent" unicode="&#x2d9;" horiz-adv-x="99" 
d="M50 585q-22 0 -36 14t-14 35t14 35t36 14t36 -14t14 -35t-14 -35t-36 -14z" />
    <glyph glyph-name="ring" unicode="&#x2da;" horiz-adv-x="206" 
d="M103 546q-44 0 -73.5 28t-29.5 71q0 42 29.5 70.5t73.5 28.5t73.5 -28.5t29.5 -70.5q0 -43 -29.5 -71t-73.5 -28zM103 593q23 0 37 14t14 39q0 22 -15 36.5t-36 14.5q-23 0 -36.5 -14.5t-13.5 -39.5q0 -21 14.5 -35.5t35.5 -14.5z" />
    <glyph glyph-name="ogonek" unicode="&#x2db;" horiz-adv-x="149" 
d="M95 -183q-42 0 -68.5 22t-26.5 58q0 35 22.5 66t57.5 46l60 -9q-29 -10 -49 -33.5t-20 -49.5q0 -20 11.5 -33.5t32.5 -13.5q17 0 25 5h9v-44q-22 -14 -54 -14z" />
    <glyph glyph-name="tilde" unicode="&#x2dc;" horiz-adv-x="320" 
d="M0 642q18 21 45.5 35.5t54.5 14.5q28 0 67.5 -20t54.5 -20q36 0 66 40l32 -48q-14 -23 -40.5 -40t-55.5 -17q-26 0 -66 20t-61 20q-39 0 -68 -33z" />
    <glyph glyph-name="hungarumlaut" unicode="&#x2dd;" horiz-adv-x="325" 
d="M0 563l81 147h92v-9l-102 -138h-71zM139 563l92 147h94v-9l-112 -138h-74z" />
    <glyph glyph-name="gravecomb" unicode="&#x300;" 
d="M0 563h-77l-133 138v9h106z" />
    <glyph glyph-name="acutecomb" unicode="&#x301;" 
d="M-210 563l104 147h106v-9l-133 -138h-77z" />
    <glyph glyph-name="uni0302" unicode="&#x302;" 
d="M-158 657l-86 -94h-72l116 148h86l114 -148h-73z" />
    <glyph glyph-name="tildecomb" unicode="&#x303;" 
d="M-320 642q18 21 45.5 35.5t54.5 14.5q28 0 67.5 -20t54.5 -20q36 0 66 40l32 -48q-14 -23 -40.5 -40t-55.5 -17q-26 0 -66 20t-61 20q-39 0 -68 -33z" />
    <glyph glyph-name="uni0304" unicode="&#x304;" 
d="M-260 605v67h260v-67h-260z" />
    <glyph glyph-name="uni0306" unicode="&#x306;" 
d="M-145 569q-63 0 -101.5 39t-44.5 96h58q6 -34 29 -54.5t59 -20.5t59 20.5t28 54.5h58q-6 -57 -44.5 -96t-100.5 -39z" />
    <glyph glyph-name="uni0307" unicode="&#x307;" 
d="M-50 585q-22 0 -36 14t-14 35t14 35t36 14t36 -14t14 -35t-14 -35t-36 -14z" />
    <glyph glyph-name="uni0308" unicode="&#x308;" 
d="M-240 682q21 0 35 -14t14 -35q0 -20 -14 -34.5t-35 -14.5t-35 14.5t-14 34.5q0 21 14 35t35 14zM-50 682q21 0 35 -14t14 -35q0 -20 -14 -34.5t-35 -14.5t-35.5 14.5t-14.5 34.5q0 21 14.5 35t35.5 14z" />
    <glyph glyph-name="uni030A" unicode="&#x30a;" 
d="M-103 546q-44 0 -73.5 28t-29.5 71q0 42 29.5 70.5t73.5 28.5t73.5 -28.5t29.5 -70.5q0 -43 -29.5 -71t-73.5 -28zM-103 593q23 0 37 14t14 39q0 22 -15 36.5t-36 14.5q-23 0 -36.5 -14.5t-13.5 -39.5q0 -21 14.5 -35.5t35.5 -14.5z" />
    <glyph glyph-name="uni030B" unicode="&#x30b;" 
d="M-332 563l81 147h92v-9l-102 -138h-71zM-193 563l92 147h94v-9l-112 -138h-74z" />
    <glyph glyph-name="uni030C" unicode="&#x30c;" 
d="M-162 617l85 94h73l-114 -148h-86l-116 148h72z" />
    <glyph glyph-name="uni0312" unicode="&#x312;" 
d="M-18 556h-79v26q0 71 47 137l50 -15q-18 -63 -18 -118v-30z" />
    <glyph glyph-name="uni0326" unicode="&#x326;" 
d="M-79 -43h79v-26q0 -71 -47 -137l-50 15q18 63 18 118v30z" />
    <glyph glyph-name="uni0327" unicode="&#x327;" 
d="M-193 -132q35 -22 76 -22q58 0 58 34q0 28 -35 28h-86l-9 21l44 71h47l-25 -44h38q39 0 61.5 -21t22.5 -54q-1 -38 -32 -60.5t-81 -22.5q-54 0 -81 21l-7 49h9z" />
    <glyph glyph-name="uni0328" unicode="&#x328;" 
d="M-54 -183q-42 0 -68.5 22t-26.5 58q0 35 22.5 66t57.5 46l60 -9q-29 -10 -49 -33.5t-20 -49.5q0 -20 11.5 -33.5t32.5 -13.5q17 0 25 5h9v-44q-22 -14 -54 -14z" />
    <glyph glyph-name="uni0335" unicode="&#x335;" 
d="M-318 222v56h319v-56h-319z" />
    <glyph glyph-name="uni0336" unicode="&#x336;" 
d="M-677 223v54h677v-54h-677z" />
    <glyph glyph-name="uni0337" unicode="&#x337;" 
d="M-272 200v71l272 124v-73z" />
    <glyph glyph-name="uni0338" unicode="&#x338;" 
d="M-455 -24l-27 24l459 525l26 -23z" />
    <glyph glyph-name="uni0394" unicode="&#x394;" horiz-adv-x="644" 
d="M12 0l276 634h69l275 -634h-620zM118 63h409l-204 477z" />
    <glyph glyph-name="uni03A9" unicode="&#x3a9;" horiz-adv-x="759" 
d="M85 0v61h151q-26 12 -53 31.5t-57.5 52t-50 82t-19.5 107.5q0 134 92 222t231 88q138 0 230.5 -89t92.5 -221q0 -57 -19 -106t-49 -82t-56.5 -53t-52.5 -32h146v-61h-249v65q77 23 140 93t63 169q0 107 -69.5 176.5t-176.5 69.5t-176.5 -69t-69.5 -177
q0 -100 64.5 -169.5t143.5 -92.5v-65h-256z" />
    <glyph glyph-name="pi" unicode="&#x3c0;" horiz-adv-x="592" 
d="M474 -11q-110 0 -110 125v304h-161l-32 -418h-75l32 418h-107l8 63h518v-63h-105v-303q0 -33 11 -46.5t37 -13.5q29 0 50 19l20 -58q-29 -27 -86 -27z" />
    <glyph glyph-name="Wgrave" unicode="&#x1e80;" horiz-adv-x="956" 
d="M545 716h-77l-133 138v9h106zM15 634h91l169 -509l191 517h23l198 -515l160 507h89l-202 -634h-73l-183 474l-176 -474h-73z" />
    <glyph glyph-name="wgrave" unicode="&#x1e81;" horiz-adv-x="755" 
d="M445 563h-77l-133 138v9h106zM14 481h87l121 -365l147 374h18l147 -374l121 365h84l-166 -481h-66l-129 334l-129 -334h-66z" />
    <glyph glyph-name="Wacute" unicode="&#x1e82;" horiz-adv-x="956" 
d="M406 716l104 147h106v-9l-133 -138h-77zM15 634h91l169 -509l191 517h23l198 -515l160 507h89l-202 -634h-73l-183 474l-176 -474h-73z" />
    <glyph glyph-name="wacute" unicode="&#x1e83;" horiz-adv-x="755" 
d="M308 563l104 147h106v-9l-133 -138h-77zM14 481h87l121 -365l147 374h18l147 -374l121 365h84l-166 -481h-66l-129 334l-129 -334h-66z" />
    <glyph glyph-name="Wdieresis" unicode="&#x1e84;" horiz-adv-x="956" 
d="M377 837q22 0 37 -15.5t15 -37.5t-15 -37.5t-37 -15.5q-23 0 -38 15.5t-15 37.5t15 37.5t38 15.5zM573 837q23 0 38.5 -15.5t15.5 -37.5t-15.5 -37.5t-38.5 -15.5q-22 0 -37 15.5t-15 37.5t15 37.5t37 15.5zM15 634h91l169 -509l191 517h23l198 -515l160 507h89
l-202 -634h-73l-183 474l-176 -474h-73z" />
    <glyph glyph-name="wdieresis" unicode="&#x1e85;" horiz-adv-x="755" 
d="M283 682q21 0 35 -14t14 -35q0 -20 -14 -34.5t-35 -14.5t-35 14.5t-14 34.5q0 21 14 35t35 14zM473 682q21 0 35 -14t14 -35q0 -20 -14 -34.5t-35 -14.5t-35.5 14.5t-14.5 34.5q0 21 14.5 35t35.5 14zM14 481h87l121 -365l147 374h18l147 -374l121 365h84l-166 -481h-66
l-129 334l-129 -334h-66z" />
    <glyph glyph-name="uni1E9E" unicode="&#x1e9e;" horiz-adv-x="617" 
d="M372 363q93 0 145.5 -50.5t52.5 -137.5q0 -86 -55 -136t-149 -50q-73 0 -112 26l-15 63h9q39 -25 101 -25q63 0 99 31.5t36 88.5q0 63 -35.5 96t-103.5 33h-78v51l174 212h-263v-565h-81v634h423v-69l-169 -202h21z" />
    <glyph glyph-name="uni1EBC" unicode="&#x1ebc;" horiz-adv-x="534" 
d="M128 795q18 21 45.5 35.5t54.5 14.5q28 0 67.5 -20t54.5 -20q36 0 66 40l32 -48q-14 -23 -40.5 -40t-55.5 -17q-26 0 -66 20t-61 20q-39 0 -68 -33zM97 634h374l11 -76h-298v-209h243v-72h-243v-201h305l-11 -76h-381v634z" />
    <glyph glyph-name="uni1EBD" unicode="&#x1ebd;" horiz-adv-x="534" 
d="M218 627q-39 0 -68 -33l-29 48q18 21 45.5 35.5t54.5 14.5q28 0 67.5 -20t54.5 -20q36 0 66 40l32 -48q-14 -23 -40.5 -40t-55.5 -17q-26 0 -66 20t-61 20zM490 292q0 -34 -7 -57h-356q5 -83 53.5 -129.5t134.5 -46.5q49 1 88.5 14.5t58.5 31.5h9l-13 -71
q-19 -17 -60 -31t-92 -14q-115 0 -187.5 69.5t-72.5 185.5q0 110 65.5 179t169.5 69q92 0 150.5 -54.5t58.5 -145.5zM130 300h281q0 59 -35 92.5t-96 33.5q-57 0 -98 -31.5t-52 -94.5z" />
    <glyph glyph-name="Ygrave" unicode="&#x1ef2;" horiz-adv-x="591" 
d="M366 716h-77l-133 138v9h106zM15 634h99l182 -276l183 276h96l-235 -347v-287h-89v287z" />
    <glyph glyph-name="ygrave" unicode="&#x1ef3;" horiz-adv-x="488" 
d="M311 563h-77l-133 138v9h106zM13 481h89l150 -382l135 382h86l-205 -534q-29 -76 -66 -109.5t-92 -33.5q-27 0 -43 5l-11 67h9q12 -5 29 -5q33 0 54 19t35 59l27 69z" />
    <glyph glyph-name="uni1EF8" unicode="&#x1ef8;" horiz-adv-x="591" 
d="M138 796q18 21 46 36t55 15t67 -19.5t56 -19.5q37 0 66 39l33 -51q-15 -24 -42 -40.5t-56 -16.5q-25 0 -65.5 19t-61.5 19q-39 0 -68 -33zM15 634h99l182 -276l183 276h96l-235 -347v-287h-89v287z" />
    <glyph glyph-name="uni1EF9" unicode="&#x1ef9;" horiz-adv-x="488" 
d="M84 642q18 21 45.5 35.5t54.5 14.5q28 0 67.5 -20t54.5 -20q36 0 66 40l32 -48q-14 -23 -40.5 -40t-55.5 -17q-26 0 -66 20t-61 20q-39 0 -68 -33zM13 481h89l150 -382l135 382h86l-205 -534q-29 -76 -66 -109.5t-92 -33.5q-27 0 -43 5l-11 67h9q12 -5 29 -5q33 0 54 19
t35 59l27 69z" />
    <glyph glyph-name="endash" unicode="&#x2013;" horiz-adv-x="594" 
d="M70 249v74h455v-74h-455z" />
    <glyph glyph-name="emdash" unicode="&#x2014;" horiz-adv-x="866" 
d="M69 249v74h729v-74h-729z" />
    <glyph glyph-name="quoteleft" unicode="&#x2018;" horiz-adv-x="214" 
d="M111 720l43 -16v-8q-13 -41 -13 -151v-46h-78v46q0 52 14.5 100t33.5 75z" />
    <glyph glyph-name="quoteright" unicode="&#x2019;" horiz-adv-x="208" 
d="M104 498l-43 16v8q13 41 13 151v46h78v-46q0 -52 -14.5 -100t-33.5 -75z" />
    <glyph glyph-name="quotesinglbase" unicode="&#x201a;" horiz-adv-x="224" 
d="M104 -122l-43 16v8q13 41 13 151v46h78v-46q0 -52 -14.5 -100t-33.5 -75z" />
    <glyph glyph-name="quotedblleft" unicode="&#x201c;" horiz-adv-x="363" 
d="M111 720l43 -16v-8q-13 -41 -13 -151v-46h-78v46q0 52 14.5 100t33.5 75zM260 720l43 -16v-8q-13 -41 -13 -151v-46h-78v46q0 52 14.5 100t33.5 75z" />
    <glyph glyph-name="quotedblright" unicode="&#x201d;" horiz-adv-x="357" 
d="M104 498l-43 16v8q13 41 13 151v46h78v-46q0 -52 -14.5 -100t-33.5 -75zM253 498l-43 16v8q13 41 13 151v46h78v-46q0 -52 -14.5 -100t-33.5 -75z" />
    <glyph glyph-name="quotedblbase" unicode="&#x201e;" horiz-adv-x="365" 
d="M104 -122l-43 16v8q13 41 13 151v46h78v-46q0 -52 -14.5 -100t-33.5 -75zM245 -122l-43 16v8q13 41 13 151v46h78v-46q0 -52 -14.5 -100t-33.5 -75z" />
    <glyph glyph-name="dagger" unicode="&#x2020;" horiz-adv-x="388" 
d="M330 619v-55h-108v-280h-56v280h-108v55h108v89h56v-89h108z" />
    <glyph glyph-name="daggerdbl" unicode="&#x2021;" horiz-adv-x="388" 
d="M330 564h-108v-121h108v-55h-108v-104h-56v104h-108v55h108v121h-108v55h108v89h56v-89h108v-55z" />
    <glyph glyph-name="bullet" unicode="&#x2022;" horiz-adv-x="422" 
d="M211 155q-58 0 -98 40.5t-40 99.5q0 58 40 99t98 41q57 0 97.5 -41t40.5 -99t-40.5 -99t-97.5 -41z" />
    <glyph glyph-name="ellipsis" unicode="&#x2026;" horiz-adv-x="596" 
d="M68 0v99h81v-99h-81zM254 0v99h81v-99h-81zM447 0v99h81v-99h-81z" />
    <glyph glyph-name="perthousand" unicode="&#x2030;" horiz-adv-x="1068" 
d="M169 312q-60 0 -97.5 46.5t-37.5 119.5q0 72 37.5 118t97.5 46q58 0 95.5 -46t37.5 -118q0 -73 -37.5 -119.5t-95.5 -46.5zM575 634h68l-439 -634h-67zM169 367q35 0 55.5 30t20.5 81t-20.5 81t-55.5 30q-36 0 -56 -29.5t-20 -81.5t20 -81.5t56 -29.5zM590 -8
q-58 0 -95.5 46.5t-37.5 119.5q0 72 37.5 118t95.5 46q59 0 96.5 -46t37.5 -118q0 -73 -37.5 -119.5t-96.5 -46.5zM902 -8q-59 0 -96.5 46.5t-37.5 119.5q0 72 37.5 118t96.5 46q58 0 95.5 -46t37.5 -118q0 -73 -37.5 -119.5t-95.5 -46.5zM902 45q36 0 57 30.5t21 82.5
t-21 82t-57 30t-57 -30t-21 -82t21 -82.5t57 -30.5zM590 47q36 0 56.5 30t20.5 81t-20.5 80.5t-56.5 29.5q-35 0 -55.5 -29.5t-20.5 -80.5t20.5 -81t55.5 -30z" />
    <glyph glyph-name="guilsinglleft" unicode="&#x2039;" horiz-adv-x="311" 
d="M261 90h-83l-135 195l133 196h86l-133 -196z" />
    <glyph glyph-name="guilsinglright" unicode="&#x203a;" horiz-adv-x="311" 
d="M50 90l132 195l-133 196h86l133 -196l-135 -195h-83z" />
    <glyph glyph-name="fraction" unicode="&#x2044;" horiz-adv-x="460" 
d="M-5 0l408 634h66l-408 -634h-66z" />
    <glyph glyph-name="Euro" unicode="&#x20ac;" horiz-adv-x="638" 
d="M587 109h9l-12 -79q-51 -41 -150 -41q-112 0 -194.5 61t-112.5 162h-91l11 53h69q-3 24 -3 50q0 13 2 35h-79l11 53h76q27 108 110.5 174t198.5 66q47 0 86.5 -11t57.5 -26l13 -79h-9q-51 43 -141 43q-84 0 -145 -45t-85 -122h299l-11 -53h-298q-2 -22 -2 -33
q0 -29 4 -52h307l-11 -53h-281q27 -69 87 -109t140 -40q94 0 144 46z" />
    <glyph glyph-name="trademark" unicode="&#x2122;" horiz-adv-x="617" 
d="M110 398v193h-73v43h205l-9 -43h-69v-193h-54zM277 398v236h47l88 -122l88 122h45v-236h-53v158l-74 -106h-13l-75 106v-158h-53z" />
    <glyph glyph-name="partialdiff" unicode="&#x2202;" horiz-adv-x="588" 
d="M323 708q95 -62 153 -167.5t58 -230.5q0 -138 -71 -229.5t-191 -91.5q-100 0 -163 62.5t-63 165.5q0 108 68.5 182t169.5 74q95 0 159 -62q-24 94 -83 170t-136 118v9h99zM273 58q84 0 133.5 66t49.5 169q0 14 -2 38q-60 74 -156 74q-78 0 -126 -53.5t-48 -134.5
q0 -73 41 -116t108 -43z" />
    <glyph glyph-name="emptyset" unicode="&#x2205;" horiz-adv-x="778" 
d="M756 643l-171 -174q63 -74 63 -174q0 -112 -77 -190.5t-187 -78.5q-98 0 -172 64l-166 -168l-23 24l165 168q-69 77 -69 181q0 112 77.5 190.5t187.5 78.5q103 0 179 -71l170 173zM158 295q0 -88 59 -152l317 321q-64 59 -150 59q-94 0 -160 -66.5t-66 -161.5zM609 295
q0 81 -52 146l-316 -321q63 -53 143 -53q93 0 159 67t66 161z" />
    <glyph glyph-name="product" unicode="&#x220f;" horiz-adv-x="657" 
d="M630 708v-68h-100v-722h-75v722h-254v-722h-75v722h-100v68h604z" />
    <glyph glyph-name="summation" unicode="&#x2211;" horiz-adv-x="510" 
d="M31 -59v47l216 295l-210 303v49h438v-66h-337l197 -286l-204 -276h344v-66h-444z" />
    <glyph glyph-name="minus" unicode="&#x2212;" horiz-adv-x="573" 
d="M68 214v64h436v-64h-436z" />
    <glyph glyph-name="radical" unicode="&#x221a;" horiz-adv-x="585" 
d="M231 -11l-148 300h-69v62h112l134 -278l253 643h74l-294 -727h-62z" />
    <glyph glyph-name="infinity" unicode="&#x221e;" horiz-adv-x="866" 
d="M229 105q-76 0 -127.5 48t-51.5 119q0 72 50.5 122t121.5 50q106 0 212 -130q103 130 206 130q74 0 124.5 -49.5t50.5 -122.5q0 -71 -50.5 -119t-126.5 -48q-112 0 -204 120q-94 -120 -205 -120zM233 163q82 0 165 106q-90 115 -173 115q-49 0 -80.5 -31.5t-31.5 -78.5
t35 -79t85 -32zM636 163q48 0 82.5 31t34.5 80t-31.5 79.5t-83.5 30.5q-86 0 -169 -112q85 -109 167 -109z" />
    <glyph glyph-name="integral" unicode="&#x222b;" horiz-adv-x="411" 
d="M73 -84q-50 0 -67 17v61h9q22 -11 48 -11q62 0 70 101l47 482q8 76 51.5 114.5t106.5 38.5q48 0 69 -16v-68h-9q-18 15 -49 15q-36 0 -59.5 -22.5t-27.5 -61.5l-46 -480q-16 -170 -143 -170z" />
    <glyph glyph-name="approxequal" unicode="&#x2248;" horiz-adv-x="670" 
d="M460 297q-55 0 -131 42q-72 39 -116 39q-37 0 -73.5 -15.5t-59.5 -38.5h-9v57q21 27 61 43.5t85 16.5q55 0 133 -42q70 -38 114 -38q79 0 126 64h9v-59q-19 -31 -56.5 -50t-82.5 -19zM463 87q-55 0 -131 42q-72 39 -116 39q-37 0 -73.5 -15.5t-59.5 -38.5h-9v57
q21 27 61 43.5t85 16.5q55 0 133 -42q70 -38 114 -38q79 0 126 64h9v-59q-19 -31 -56.5 -50t-82.5 -19z" />
    <glyph glyph-name="notequal" unicode="&#x2260;" horiz-adv-x="575" 
d="M507 316h-154l-62 -149h213v-64h-239l-37 -88h-65l37 88h-132v64h159l62 149h-218v64h245l41 98h64l-41 -98h127v-64z" />
    <glyph glyph-name="lessequal" unicode="&#x2264;" horiz-adv-x="560" 
d="M493 137l-435 135v57l435 150v-67l-323 -110l323 -100v-65zM494 1h-436v64h436v-64z" />
    <glyph glyph-name="greaterequal" unicode="&#x2265;" horiz-adv-x="560" 
d="M67 137v65l323 100l-323 110v67l435 -150v-57zM66 1v64h436v-64h-436z" />
    <glyph glyph-name="lozenge" unicode="&#x25ca;" horiz-adv-x="522" 
d="M261 -11l-236 365l236 365l237 -365zM261 105l157 249l-157 247l-156 -247z" />
    <glyph glyph-name="uniF8FF" unicode="&#xf8ff;" horiz-adv-x="1451" 
d="M691 583q0 26 17.5 44t43.5 18t44 -18t18 -44t-18 -43.5t-44 -17.5t-43.5 18t-17.5 43zM219 270h-119q0 134 9 314h100q10 -200 10 -314zM694 270q0 92 3 147h-61l3 -65q4 -4 15 -4q13 0 18 5v-74q-14 -15 -68 -15q-82 0 -82 66q0 12 2 49t2 38h-22v79l119 30l1 -17h178
q10 -64 10 -239h-118zM328 265q-92 0 -92 114q0 135 134 135q124 0 124 -117v-127h-83l-8 61q-6 -33 -23.5 -49.5t-51.5 -16.5zM1090 270h-114q0 26 1 56t1 37q0 29 -15 29q-18 0 -18 -29q0 -7 1.5 -37t1.5 -56h-114q0 175 10 239h80q6 -44 6 -76q2 15 6.5 30t24 33t49.5 18
q42 0 58.5 -25t18.5 -81zM1351 391q0 -126 -123 -126q-122 0 -122 124q0 125 124 125q121 0 121 -123zM390 375q0 26 -24 26q-22 0 -22 -26q0 -30 22 -30q24 0 24 30zM1251 375q0 26 -23 26q-21 0 -21 -26q0 -30 21 -30q23 0 23 30zM428 238h104q10 -52 10 -138
q0 -81 -33.5 -115.5t-118.5 -34.5q-61 0 -88 17v83q24 -16 70 -16q21 0 34 6t16.5 11.5t3.5 10.5q-16 -11 -49 -11q-90 0 -90 83v13h-55l3 -65q6 -4 15 -4q13 0 18 5v-73q-19 -15 -68 -15q-45 0 -63 17t-18 54q0 39 3 81h-18v80l117 29l-1 -18h177v-119q0 -16 3 -21.5
t12 -5.5q16 0 16 27v119zM733 243q37 0 58.5 -29t21.5 -84q0 -135 -137 -135q1 -15 1 -39h-119q0 142 10 282h78q7 -42 7 -76q17 81 80 81zM1070 127q0 -21 -3 -35h-124q11 -18 50 -18q34 0 55 12v-75q-23 -16 -78 -16q-141 0 -141 122q0 59 32.5 92.5t92.5 33.5
q55 0 85.5 -30t30.5 -86zM978 109q3 27 -17 27q-23 0 -23 -27h40zM670 72q5 0 12.5 2.5t16 11.5t8.5 23q0 23 -20 23q-22 0 -22 -31q0 -14 5 -29zM1074 13q0 -23 24 -23t24 23t-24 23t-24 -23zM1080 13q0 18 18 18t18 -18t-18 -18t-18 18zM1108 2l-6 9q7 0 7 7t-10 7h-11
v-23h5v9h5l4 -9h6zM1100 15h-7v6h7q4 0 4 -3t-4 -3z" />
    <glyph glyph-name="uni00A40301" horiz-adv-x="313" 
d="M98 716l104 147h106v-9l-133 -138h-77zM10 -81l-10 71h9q11 -9 46 -9q74 0 74 85v568h88v-570q0 -75 -36 -116t-105 -41q-42 0 -66 12z" />
    <glyph glyph-name="K.ss01" horiz-adv-x="634" 
d="M523 122q19 -29 39.5 -43t53.5 -13l-11 -68q-86 -22 -162 89l-155 224l-106 -105v-206h-85v634h85v-329l322 329h94v-8l-246 -259z" />
    <glyph glyph-name="Kcommaaccent.ss01" horiz-adv-x="634" 
d="M523 122q19 -29 39.5 -43t53.5 -13l-11 -68q-86 -22 -162 89l-155 224l-106 -105v-206h-85v634h85v-329l322 329h94v-8l-246 -259zM295 -73v30h79v-26q0 -71 -47 -137l-50 15q18 63 18 118z" />
    <glyph glyph-name="R.ss01" horiz-adv-x="624" 
d="M502 103q17 -27 34.5 -35.5t41.5 -1.5l-9 -67q-40 -13 -76.5 4t-60.5 58l-108 172h-11h-129v-233h-87v634h233q111 0 169.5 -52.5t58.5 -143.5q0 -74 -38.5 -123t-107.5 -69zM184 560v-258h126q157 0 157 129t-138 129h-145z" />
    <glyph glyph-name="Racute.ss01" horiz-adv-x="624" 
d="M443 854l-133 -138h-77l104 147h106v-9zM502 103q17 -27 34.5 -35.5t41.5 -1.5l-9 -67q-40 -13 -76.5 4t-60.5 58l-108 172h-11h-129v-233h-87v634h233q111 0 169.5 -52.5t58.5 -143.5q0 -74 -38.5 -123t-107.5 -69zM184 560v-258h126q157 0 157 129t-138 129h-145z" />
    <glyph glyph-name="Rcaron.ss01" horiz-adv-x="624" 
d="M347 718h-86l-116 148h72l86 -94l85 94h73zM502 103q17 -27 34.5 -35.5t41.5 -1.5l-9 -67q-40 -13 -76.5 4t-60.5 58l-108 172h-11h-129v-233h-87v634h233q111 0 169.5 -52.5t58.5 -143.5q0 -74 -38.5 -123t-107.5 -69zM184 560v-258h126q157 0 157 129t-138 129h-145z
" />
    <glyph glyph-name="Rcommaaccent.ss01" horiz-adv-x="624" 
d="M502 103q17 -27 34.5 -35.5t41.5 -1.5l-9 -67q-40 -13 -76.5 4t-60.5 58l-108 172h-11h-129v-233h-87v634h233q111 0 169.5 -52.5t58.5 -143.5q0 -74 -38.5 -123t-107.5 -69zM184 560v-258h126q157 0 157 129t-138 129h-145zM264 -73v30h79v-26q0 -71 -47 -137l-50 15
q18 63 18 118z" />
    <glyph glyph-name="i.loclTRK" horiz-adv-x="246" 
d="M124 585q-22 0 -36 14t-14 35t14 35t36 14t36 -14t14 -35t-14 -35t-36 -14zM83 0v481h81v-481h-81z" />
    <glyph glyph-name="uni006A0301" horiz-adv-x="252" 
d="M60 563l104 147h106v-9l-133 -138h-77zM88 481h82v-524q0 -77 -32 -116t-91 -39q-18 0 -44 6l-11 64h9q7 -4 23 -4q38 0 51 19.5t13 70.5v523z" />
    <glyph glyph-name="a.ss01" horiz-adv-x="577" 
d="M307 492q57 0 109 -16.5t82 -38.5v-437h-72v64q-17 -31 -59.5 -53t-96.5 -22q-96 0 -160 66t-64 178q0 115 71.5 187t189.5 72zM309 422q-83 0 -131.5 -50.5t-48.5 -135.5q0 -81 43 -129t114 -48q49 0 85 20t47 44v271q-37 28 -109 28z" />
    <glyph glyph-name="aacute.ss01" horiz-adv-x="577" 
d="M219 563l104 147h106v-9l-133 -138h-77zM307 492q57 0 109 -16.5t82 -38.5v-437h-72v64q-17 -31 -59.5 -53t-96.5 -22q-96 0 -160 66t-64 178q0 115 71.5 187t189.5 72zM309 422q-83 0 -131.5 -50.5t-48.5 -135.5q0 -81 43 -129t114 -48q49 0 85 20t47 44v271
q-37 28 -109 28z" />
    <glyph glyph-name="abreve.ss01" horiz-adv-x="577" 
d="M289 569q-63 0 -101.5 39t-44.5 96h58q6 -34 29 -54.5t59 -20.5t59 20.5t28 54.5h58q-6 -57 -44.5 -96t-100.5 -39zM307 492q57 0 109 -16.5t82 -38.5v-437h-72v64q-17 -31 -59.5 -53t-96.5 -22q-96 0 -160 66t-64 178q0 115 71.5 187t189.5 72zM309 422
q-83 0 -131.5 -50.5t-48.5 -135.5q0 -81 43 -129t114 -48q49 0 85 20t47 44v271q-37 28 -109 28z" />
    <glyph glyph-name="acircumflex.ss01" horiz-adv-x="577" 
d="M289 657l-86 -94h-72l116 148h86l114 -148h-73zM307 492q57 0 109 -16.5t82 -38.5v-437h-72v64q-17 -31 -59.5 -53t-96.5 -22q-96 0 -160 66t-64 178q0 115 71.5 187t189.5 72zM309 422q-83 0 -131.5 -50.5t-48.5 -135.5q0 -81 43 -129t114 -48q49 0 85 20t47 44v271
q-37 28 -109 28z" />
    <glyph glyph-name="adieresis.ss01" horiz-adv-x="577" 
d="M194 682q21 0 35 -14t14 -35q0 -20 -14 -34.5t-35 -14.5t-35 14.5t-14 34.5q0 21 14 35t35 14zM384 682q21 0 35 -14t14 -35q0 -20 -14 -34.5t-35 -14.5t-35.5 14.5t-14.5 34.5q0 21 14.5 35t35.5 14zM307 492q57 0 109 -16.5t82 -38.5v-437h-72v64q-17 -31 -59.5 -53
t-96.5 -22q-96 0 -160 66t-64 178q0 115 71.5 187t189.5 72zM309 422q-83 0 -131.5 -50.5t-48.5 -135.5q0 -81 43 -129t114 -48q49 0 85 20t47 44v271q-37 28 -109 28z" />
    <glyph glyph-name="agrave.ss01" horiz-adv-x="577" 
d="M356 563h-77l-133 138v9h106zM307 492q57 0 109 -16.5t82 -38.5v-437h-72v64q-17 -31 -59.5 -53t-96.5 -22q-96 0 -160 66t-64 178q0 115 71.5 187t189.5 72zM309 422q-83 0 -131.5 -50.5t-48.5 -135.5q0 -81 43 -129t114 -48q49 0 85 20t47 44v271q-37 28 -109 28z" />
    <glyph glyph-name="amacron.ss01" horiz-adv-x="577" 
d="M158 605v67h260v-67h-260zM307 492q57 0 109 -16.5t82 -38.5v-437h-72v64q-17 -31 -59.5 -53t-96.5 -22q-96 0 -160 66t-64 178q0 115 71.5 187t189.5 72zM309 422q-83 0 -131.5 -50.5t-48.5 -135.5q0 -81 43 -129t114 -48q49 0 85 20t47 44v271q-37 28 -109 28z" />
    <glyph glyph-name="aogonek.ss01" horiz-adv-x="577" 
d="M492 -125h9v-44q-22 -14 -54 -14q-42 0 -68.5 22t-26.5 58q0 34 20.5 63.5t53.5 45.5v58q-17 -31 -59.5 -53t-96.5 -22q-96 0 -160 66t-64 178q0 115 71.5 187t189.5 72q57 0 109 -16.5t82 -38.5v-437h-6q-29 -10 -49 -33.5t-20 -49.5q0 -20 11.5 -33.5t32.5 -13.5
q17 0 25 5zM418 123v271q-37 28 -109 28q-83 0 -131.5 -50.5t-48.5 -135.5q0 -81 43 -129t114 -48q49 0 85 20t47 44z" />
    <glyph glyph-name="aring.ss01" horiz-adv-x="577" 
d="M289 546q-44 0 -73.5 28t-29.5 71q0 42 29.5 70.5t73.5 28.5t73.5 -28.5t29.5 -70.5q0 -43 -29.5 -71t-73.5 -28zM289 593q23 0 37 14t14 39q0 22 -15 36.5t-36 14.5q-23 0 -36.5 -14.5t-13.5 -39.5q0 -21 14.5 -35.5t35.5 -14.5zM307 492q57 0 109 -16.5t82 -38.5v-437
h-72v64q-17 -31 -59.5 -53t-96.5 -22q-96 0 -160 66t-64 178q0 115 71.5 187t189.5 72zM309 422q-83 0 -131.5 -50.5t-48.5 -135.5q0 -81 43 -129t114 -48q49 0 85 20t47 44v271q-37 28 -109 28z" />
    <glyph glyph-name="atilde.ss01" horiz-adv-x="577" 
d="M129 642q18 21 45.5 35.5t54.5 14.5q28 0 67.5 -20t54.5 -20q36 0 66 40l32 -48q-14 -23 -40.5 -40t-55.5 -17q-26 0 -66 20t-61 20q-39 0 -68 -33zM307 492q57 0 109 -16.5t82 -38.5v-437h-72v64q-17 -31 -59.5 -53t-96.5 -22q-96 0 -160 66t-64 178q0 115 71.5 187
t189.5 72zM309 422q-83 0 -131.5 -50.5t-48.5 -135.5q0 -81 43 -129t114 -48q49 0 85 20t47 44v271q-37 28 -109 28z" />
    <glyph glyph-name="g.ss01" horiz-adv-x="577" 
d="M308 492q57 0 109.5 -16.5t80.5 -39.5v-414q0 -106 -61.5 -161.5t-167.5 -55.5q-53 0 -98 13.5t-70 31.5l-14 76h9q63 -54 166 -54q156 0 156 138v54q-19 -29 -58 -48.5t-90 -19.5q-96 0 -160 66.5t-64 174.5q0 112 71 183.5t191 71.5zM308 422q-82 0 -130.5 -49.5
t-48.5 -133.5q0 -79 42.5 -127t114.5 -48q50 0 85.5 21t46.5 45v265q-37 27 -110 27z" />
    <glyph glyph-name="gbreve.ss01" horiz-adv-x="577" 
d="M297 569q-63 0 -101.5 39t-44.5 96h58q6 -34 29 -54.5t59 -20.5t59 20.5t28 54.5h58q-6 -57 -44.5 -96t-100.5 -39zM308 492q57 0 109.5 -16.5t80.5 -39.5v-414q0 -106 -61.5 -161.5t-167.5 -55.5q-53 0 -98 13.5t-70 31.5l-14 76h9q63 -54 166 -54q156 0 156 138v54
q-19 -29 -58 -48.5t-90 -19.5q-96 0 -160 66.5t-64 174.5q0 112 71 183.5t191 71.5zM308 422q-82 0 -130.5 -49.5t-48.5 -133.5q0 -79 42.5 -127t114.5 -48q50 0 85.5 21t46.5 45v265q-37 27 -110 27z" />
    <glyph glyph-name="gcommaaccent.ss01" horiz-adv-x="577" 
d="M328 556h-79v26q0 71 47 137l50 -15q-18 -63 -18 -118v-30zM308 492q57 0 109.5 -16.5t80.5 -39.5v-414q0 -106 -61.5 -161.5t-167.5 -55.5q-53 0 -98 13.5t-70 31.5l-14 76h9q63 -54 166 -54q156 0 156 138v54q-19 -29 -58 -48.5t-90 -19.5q-96 0 -160 66.5t-64 174.5
q0 112 71 183.5t191 71.5zM308 422q-82 0 -130.5 -49.5t-48.5 -133.5q0 -79 42.5 -127t114.5 -48q50 0 85.5 21t46.5 45v265q-37 27 -110 27z" />
    <glyph glyph-name="gdotaccent.ss01" horiz-adv-x="577" 
d="M297 585q-22 0 -36 14t-14 35t14 35t36 14t36 -14t14 -35t-14 -35t-36 -14zM308 492q57 0 109.5 -16.5t80.5 -39.5v-414q0 -106 -61.5 -161.5t-167.5 -55.5q-53 0 -98 13.5t-70 31.5l-14 76h9q63 -54 166 -54q156 0 156 138v54q-19 -29 -58 -48.5t-90 -19.5
q-96 0 -160 66.5t-64 174.5q0 112 71 183.5t191 71.5zM308 422q-82 0 -130.5 -49.5t-48.5 -133.5q0 -79 42.5 -127t114.5 -48q50 0 85.5 21t46.5 45v265q-37 27 -110 27z" />
    <glyph glyph-name="k.ss01" horiz-adv-x="508" 
d="M80 700l79 16v-470l226 235h90v-8l-187 -195l132 -172q17 -22 23.5 -29t20 -14.5t31.5 -6.5l-12 -63q-61 -15 -131 75l-124 164l-69 -69v-163h-79v700z" />
    <glyph glyph-name="kcommaaccent.ss01" horiz-adv-x="508" 
d="M80 700l79 16v-470l226 235h90v-8l-187 -195l132 -172q17 -22 23.5 -29t20 -14.5t31.5 -6.5l-12 -63q-61 -15 -131 75l-124 164l-69 -69v-163h-79v700zM230 -43h79v-26q0 -71 -47 -137l-50 15q18 63 18 118v30z" />
    <glyph glyph-name="u.ss01" horiz-adv-x="569" 
d="M285 -11q-98 0 -154.5 57.5t-56.5 158.5v276h81v-284q0 -65 35.5 -100.5t94.5 -35.5q58 0 93.5 36t35.5 100v284h81v-276q0 -101 -56.5 -158.5t-153.5 -57.5z" />
    <glyph glyph-name="uacute.ss01" horiz-adv-x="569" 
d="M215 563l104 147h106v-9l-133 -138h-77zM285 -11q-98 0 -154.5 57.5t-56.5 158.5v276h81v-284q0 -65 35.5 -100.5t94.5 -35.5q58 0 93.5 36t35.5 100v284h81v-276q0 -101 -56.5 -158.5t-153.5 -57.5z" />
    <glyph glyph-name="ucircumflex.ss01" horiz-adv-x="569" 
d="M285 657l-86 -94h-72l116 148h86l114 -148h-73zM285 -11q-98 0 -154.5 57.5t-56.5 158.5v276h81v-284q0 -65 35.5 -100.5t94.5 -35.5q58 0 93.5 36t35.5 100v284h81v-276q0 -101 -56.5 -158.5t-153.5 -57.5z" />
    <glyph glyph-name="udieresis.ss01" horiz-adv-x="569" 
d="M190 682q21 0 35 -14t14 -35q0 -20 -14 -34.5t-35 -14.5t-35 14.5t-14 34.5q0 21 14 35t35 14zM380 682q21 0 35 -14t14 -35q0 -20 -14 -34.5t-35 -14.5t-35.5 14.5t-14.5 34.5q0 21 14.5 35t35.5 14zM285 -11q-98 0 -154.5 57.5t-56.5 158.5v276h81v-284
q0 -65 35.5 -100.5t94.5 -35.5q58 0 93.5 36t35.5 100v284h81v-276q0 -101 -56.5 -158.5t-153.5 -57.5z" />
    <glyph glyph-name="ugrave.ss01" horiz-adv-x="569" 
d="M352 563h-77l-133 138v9h106zM285 -11q-98 0 -154.5 57.5t-56.5 158.5v276h81v-284q0 -65 35.5 -100.5t94.5 -35.5q58 0 93.5 36t35.5 100v284h81v-276q0 -101 -56.5 -158.5t-153.5 -57.5z" />
    <glyph glyph-name="uhungarumlaut.ss01" horiz-adv-x="569" 
d="M183 563l81 147h92v-9l-102 -138h-71zM322 563l92 147h94v-9l-112 -138h-74zM285 -11q-98 0 -154.5 57.5t-56.5 158.5v276h81v-284q0 -65 35.5 -100.5t94.5 -35.5q58 0 93.5 36t35.5 100v284h81v-276q0 -101 -56.5 -158.5t-153.5 -57.5z" />
    <glyph glyph-name="umacron.ss01" horiz-adv-x="569" 
d="M154 605v67h260v-67h-260zM285 -11q-98 0 -154.5 57.5t-56.5 158.5v276h81v-284q0 -65 35.5 -100.5t94.5 -35.5q58 0 93.5 36t35.5 100v284h81v-276q0 -101 -56.5 -158.5t-153.5 -57.5z" />
    <glyph glyph-name="uogonek.ss01" horiz-adv-x="569" 
d="M414 481h81v-276q0 -80 -37 -134t-102 -73q-28 -11 -46.5 -33t-18.5 -48q0 -20 11.5 -33.5t32.5 -13.5q17 0 25 5h9v-44q-22 -14 -54 -14q-42 0 -68.5 22t-26.5 58q0 54 48 92q-90 5 -142 62.5t-52 153.5v276h81v-284q0 -65 35.5 -100.5t94.5 -35.5q58 0 93.5 36
t35.5 100v284z" />
    <glyph glyph-name="uring.ss01" horiz-adv-x="569" 
d="M285 546q-44 0 -73.5 28t-29.5 71q0 42 29.5 70.5t73.5 28.5t73.5 -28.5t29.5 -70.5q0 -43 -29.5 -71t-73.5 -28zM285 593q23 0 37 14t14 39q0 22 -15 36.5t-36 14.5q-23 0 -36.5 -14.5t-13.5 -39.5q0 -21 14.5 -35.5t35.5 -14.5zM285 -11q-98 0 -154.5 57.5t-56.5 158.5
v276h81v-284q0 -65 35.5 -100.5t94.5 -35.5q58 0 93.5 36t35.5 100v284h81v-276q0 -101 -56.5 -158.5t-153.5 -57.5z" />
    <glyph glyph-name="utilde.ss01" horiz-adv-x="569" 
d="M125 642q18 21 45.5 35.5t54.5 14.5q28 0 67.5 -20t54.5 -20q36 0 66 40l32 -48q-14 -23 -40.5 -40t-55.5 -17q-26 0 -66 20t-61 20q-39 0 -68 -33zM285 -11q-98 0 -154.5 57.5t-56.5 158.5v276h81v-284q0 -65 35.5 -100.5t94.5 -35.5q58 0 93.5 36t35.5 100v284h81v-276
q0 -101 -56.5 -158.5t-153.5 -57.5z" />
    <glyph glyph-name="y.ss01" horiz-adv-x="575" 
d="M414 481h81v-459q0 -106 -61 -161.5t-166 -55.5q-102 0 -166 44l-16 78h9q65 -54 166 -54q153 0 153 138v63q-21 -32 -65.5 -56t-99.5 -24q-82 0 -128 46t-46 141v300h81v-293q0 -121 118 -121q46 0 83.5 23.5t56.5 52.5v338z" />
    <glyph glyph-name="yacute.ss01" horiz-adv-x="575" 
d="M214 563l104 147h106v-9l-133 -138h-77zM414 481h81v-459q0 -106 -61 -161.5t-166 -55.5q-102 0 -166 44l-16 78h9q65 -54 166 -54q153 0 153 138v63q-21 -32 -65.5 -56t-99.5 -24q-82 0 -128 46t-46 141v300h81v-293q0 -121 118 -121q46 0 83.5 23.5t56.5 52.5v338z" />
    <glyph glyph-name="ycircumflex.ss01" horiz-adv-x="575" 
d="M284 657l-86 -94h-72l116 148h86l114 -148h-73zM414 481h81v-459q0 -106 -61 -161.5t-166 -55.5q-102 0 -166 44l-16 78h9q65 -54 166 -54q153 0 153 138v63q-21 -32 -65.5 -56t-99.5 -24q-82 0 -128 46t-46 141v300h81v-293q0 -121 118 -121q46 0 83.5 23.5t56.5 52.5
v338z" />
    <glyph glyph-name="ydieresis.ss01" horiz-adv-x="575" 
d="M189 682q21 0 35 -14t14 -35q0 -20 -14 -34.5t-35 -14.5t-35 14.5t-14 34.5q0 21 14 35t35 14zM379 682q21 0 35 -14t14 -35q0 -20 -14 -34.5t-35 -14.5t-35.5 14.5t-14.5 34.5q0 21 14.5 35t35.5 14zM414 481h81v-459q0 -106 -61 -161.5t-166 -55.5q-102 0 -166 44
l-16 78h9q65 -54 166 -54q153 0 153 138v63q-21 -32 -65.5 -56t-99.5 -24q-82 0 -128 46t-46 141v300h81v-293q0 -121 118 -121q46 0 83.5 23.5t56.5 52.5v338z" />
    <glyph glyph-name="ygrave.ss01" horiz-adv-x="575" 
d="M351 563h-77l-133 138v9h106zM414 481h81v-459q0 -106 -61 -161.5t-166 -55.5q-102 0 -166 44l-16 78h9q65 -54 166 -54q153 0 153 138v63q-21 -32 -65.5 -56t-99.5 -24q-82 0 -128 46t-46 141v300h81v-293q0 -121 118 -121q46 0 83.5 23.5t56.5 52.5v338z" />
    <glyph glyph-name="uni1EF9.ss01" horiz-adv-x="575" 
d="M124 642q18 21 45.5 35.5t54.5 14.5q28 0 67.5 -20t54.5 -20q36 0 66 40l32 -48q-14 -23 -40.5 -40t-55.5 -17q-26 0 -66 20t-61 20q-39 0 -68 -33zM414 481h81v-459q0 -106 -61 -161.5t-166 -55.5q-102 0 -166 44l-16 78h9q65 -54 166 -54q153 0 153 138v63
q-21 -32 -65.5 -56t-99.5 -24q-82 0 -128 46t-46 141v300h81v-293q0 -121 118 -121q46 0 83.5 23.5t56.5 52.5v338z" />
    <glyph glyph-name="caroncomb.alt" 
d="M-79 537v183h79v-11l-21 -172h-58z" />
    <glyph glyph-name="uni0308.case" 
d="M-250 685q22 0 37 -15.5t15 -37.5t-15 -37.5t-37 -15.5t-37.5 15.5t-15.5 37.5t15.5 37.5t37.5 15.5zM-54 685q23 0 38.5 -15.5t15.5 -37.5t-15.5 -37.5t-38.5 -15.5q-22 0 -37 15.5t-15 37.5t15 37.5t37 15.5z" />
    <glyph glyph-name="uni0307.case" 
d="M-54 579q-23 0 -38.5 15.5t-15.5 38.5t15.5 38t38.5 15t38.5 -15t15.5 -38t-15.5 -38.5t-38.5 -15.5z" />
    <glyph glyph-name="gravecomb.case" 
d="M0 563h-77l-133 138v9h106z" />
    <glyph glyph-name="acutecomb.case" 
d="M-210 563l104 147h106v-9l-133 -138h-77z" />
    <glyph glyph-name="uni030B.case" 
d="M-325 563l81 147h92v-9l-102 -138h-71zM-186 563l92 147h94v-9l-112 -138h-74z" />
    <glyph glyph-name="uni0302.case" 
d="M-156 657l-86 -94h-72l116 148h86l114 -148h-73z" />
    <glyph glyph-name="uni030C.case" 
d="M-158 619l85 94h73l-114 -148h-86l-116 148h72z" />
    <glyph glyph-name="uni0306.case" 
d="M-145 569q-63 0 -101.5 39t-44.5 96h58q6 -34 29 -54.5t59 -20.5t59 20.5t28 54.5h58q-6 -57 -44.5 -96t-100.5 -39z" />
    <glyph glyph-name="uni030A.case" 
d="M-103 546q-44 0 -73.5 28t-29.5 71q0 42 29.5 70.5t73.5 28.5t73.5 -28.5t29.5 -70.5q0 -43 -29.5 -71t-73.5 -28zM-103 593q23 0 37 14t14 39q0 22 -15 36.5t-36 14.5q-23 0 -36.5 -14.5t-13.5 -39.5q0 -21 14.5 -35.5t35.5 -14.5z" />
    <glyph glyph-name="tildecomb.case" 
d="M-317 643q18 21 46 36t55 15t67 -19.5t56 -19.5q37 0 66 39l33 -51q-15 -24 -42 -40.5t-56 -16.5q-25 0 -65.5 19t-61.5 19q-39 0 -68 -33z" />
    <glyph glyph-name="uni0304.case" 
d="M-260 605v67h260v-67h-260z" />
    <glyph glyph-name="uni0337.case" 
d="M-272 200v71l272 124v-73z" />
    <glyph glyph-name="uni0338.case" 
d="M-458 -24l-27 24l459 525l26 -23z" />
    <glyph glyph-name="caron.alt" horiz-adv-x="79" 
d="M0 537v183h79v-11l-21 -172h-58z" />
    <glyph glyph-name="acute.case" horiz-adv-x="210" 
d="M0 563l104 147h106v-9l-133 -138h-77z" />
    <glyph glyph-name="breve.case" horiz-adv-x="291" 
d="M146 569q-62 0 -101 39t-45 96h58q6 -34 29 -54.5t59 -20.5t59 20.5t28 54.5h58q-6 -57 -44.5 -96t-100.5 -39z" />
    <glyph glyph-name="caron.case" horiz-adv-x="316" 
d="M158 619l85 94h73l-114 -148h-86l-116 148h72z" />
    <glyph glyph-name="circumflex.case" horiz-adv-x="316" 
d="M158 657l-86 -94h-72l116 148h86l114 -148h-73z" />
    <glyph glyph-name="dieresis.case" horiz-adv-x="290" 
d="M54 685q22 0 37 -15.5t15 -37.5t-15 -37.5t-37 -15.5t-37.5 15.5t-15.5 37.5t15.5 37.5t37.5 15.5zM250 685q23 0 38.5 -15.5t15.5 -37.5t-15.5 -37.5t-38.5 -15.5q-22 0 -37 15.5t-15 37.5t15 37.5t37 15.5z" />
    <glyph glyph-name="dotaccent.case" horiz-adv-x="99" 
d="M54 579q-23 0 -38.5 15.5t-15.5 38.5t15.5 38t38.5 15t38.5 -15t15.5 -38t-15.5 -38.5t-38.5 -15.5z" />
    <glyph glyph-name="grave.case" horiz-adv-x="210" 
d="M210 563h-77l-133 138v9h106z" />
    <glyph glyph-name="hungarumlaut.case" horiz-adv-x="325" 
d="M-1 563l81 147h92v-9l-102 -138h-71zM138 563l92 147h94v-9l-112 -138h-74z" />
    <glyph glyph-name="macron.case" horiz-adv-x="260" 
d="M0 605v67h260v-67h-260z" />
    <glyph glyph-name="ring.case" horiz-adv-x="206" 
d="M103 546q-44 0 -73.5 28t-29.5 71q0 42 29.5 70.5t73.5 28.5t73.5 -28.5t29.5 -70.5q0 -43 -29.5 -71t-73.5 -28zM103 593q23 0 37 14t14 39q0 22 -15 36.5t-36 14.5q-23 0 -36.5 -14.5t-13.5 -39.5q0 -21 14.5 -35.5t35.5 -14.5z" />
    <glyph glyph-name="tilde.case" horiz-adv-x="323" 
d="M0 643q18 21 46 36t55 15t67 -19.5t56 -19.5q37 0 66 39l33 -51q-15 -24 -42 -40.5t-56 -16.5q-25 0 -65.5 19t-61.5 19q-39 0 -68 -33z" />
    <glyph glyph-name="IJacute" horiz-adv-x="594" 
d="M71 716l104 147h106v-9l-133 -138h-77zM379 716l104 147h106v-9l-133 -138h-77zM97 0v634h87v-634h-87zM291 -81l-10 71h9q11 -9 46 -9q74 0 74 85v568h88v-570q0 -75 -36 -116t-105 -41q-42 0 -66 12z" />
    <glyph glyph-name="ijacute" horiz-adv-x="498" 
d="M54 563l104 147h106v-9l-133 -138h-77zM306 563l104 147h106v-9l-133 -138h-77zM83 0v481h81v-481h-81zM334 481h82v-524q0 -77 -32 -116t-91 -39q-18 0 -44 6l-11 64h9q7 -4 23 -4q38 0 51 19.5t13 70.5v523z" />
    </font>
</defs>
</svg>
