<?xml version="1.0" encoding="utf-8"?>
<!-- Generator: Adobe Illustrator 22.1.0, SVG Export Plug-In . SVG Version: 6.00 Build 0)  -->
<svg version="1.1" id="Laag_1" xmlns="http://www.w3.org/2000/svg" xmlns:xlink="http://www.w3.org/1999/xlink" x="0px" y="0px"
	 viewBox="0 0 553.6 470.1" style="enable-background:new 0 0 553.6 470.1;" xml:space="preserve">
<style type="text/css">
	.st0{fill:#D32B38;}
</style>
<g>
	<polygon points="83.5,0 83.5,57.2 101.8,57.2 101.8,18.3 535.3,18.3 535.3,451.8 101.8,451.8 101.8,217.9 83.5,217.9 83.5,470.1 
		553.6,470.1 553.6,0 	"/>
	<g>
		<g>
			<g>
				<path d="M137.4,276.8c0.2,3.5,1.5,5.1,4.2,5.1s4.2-1.7,4.2-5.3v-13.9h3.1v13.9c0,4.9-2.5,8.1-7.4,8.1c-4.6,0-6.9-2.8-7.1-7.6
					L137.4,276.8z"/>
				<path d="M175.9,262.3c5.7,0,9.5,4.6,9.5,11.2s-3.8,11.1-9.5,11.1c-5.6,0-9.5-4.6-9.5-11.1C166.4,266.9,170.2,262.3,175.9,262.3z
					 M175.9,281.7c3.8,0,6.4-2.8,6.4-8.2c0-5.3-2.7-8.2-6.4-8.2c-3.7,0-6.4,2.9-6.4,8.2S172.1,281.7,175.9,281.7z"/>
				<path d="M206,275.5c0,3.9,1.5,6.3,5,6.3c3.6,0,5.1-2.6,5.1-6.3v-12.8h3.1v13c0,5-2.6,9-8.2,9s-8.2-3.6-8.2-9v-13h3.1v12.8H206z"
					/>
				<path d="M249.9,273.7l-3.7,10.7h-3.3l-7.2-21.7h3.3l5.9,18.2l3.8-10.9l-2.4-7.3h3.3l5.5,17.7l5.9-17.7h3.3l-7.5,21.7h-3.4
					L249.9,273.7z"/>
				<path d="M136.8,335v-21.6h14.4v2.8h-11.4v6.3h9.4v2.7h-9.4v7.1h11.4v2.7H136.8z"/>
				<path d="M168.9,313.4h3.1v21.7h-3.1V313.4z"/>
				<path d="M205.2,318.3c-1.6-1.5-3.3-2.3-5.3-2.3c-4.1,0-7,3-7,8.2c0,5.3,2.9,8.2,6.8,8.2c1.8,0,3.5-0.6,4.6-1.5v-5.2h-5.6V323
					h8.5v9.7c-1.7,1.5-4.9,2.6-7.7,2.6c-5.4,0-9.8-4.1-9.8-11.1s4.4-11.2,9.8-11.2c3,0,5.2,1,7,2.7L205.2,318.3z"/>
				<path d="M225.3,335v-21.6h14.4v2.8h-11.4v6.3h9.4v2.7h-9.4v7.1h11.4v2.7H225.3z"/>
				<path d="M260.5,318.6V335h-3.1v-21.6h2.7l11.3,16.5v-16.5h3.2v21.7h-2.8L260.5,318.6z"/>
				<path d="M136.8,364.1h7.3c3.9,0,6.3,1.8,6.3,5.7c0,2.4-1.2,4-3,4.7c2.8,0.6,4.5,2.3,4.5,5.4c0,3.6-2.3,5.9-6.5,5.9h-8.6
					L136.8,364.1L136.8,364.1z M139.9,373.3h3.7c2.3,0,3.7-1.1,3.7-3.2c0-2.2-1.2-3.2-3.5-3.2H140v6.4H139.9z M139.9,383h5
					c2.5,0,3.7-1.2,3.7-3.3c0-2.4-1.4-3.6-4.1-3.6h-4.6V383z"/>
				<path d="M174.4,364.1h3.6l7.2,21.7h-3.1l-1.6-4.9h-9l-1.6,4.9h-3.1L174.4,364.1z M172.4,378.6h7.4l-3.6-11.3L172.4,378.6z"/>
				<path d="M201.8,364.1h7.6c5.4,0,9.5,3.9,9.5,10.9s-4.1,10.8-9.5,10.8h-7.6V364.1z M209.1,383c4,0,6.7-2.8,6.7-8.1
					c0-5.3-2.7-8.1-6.7-8.1H205V383H209.1z"/>
				<path d="M254,369.3l-6.8,9.8h-0.6l-6.8-9.8v16.5h-3.1v-21.7h3.1l7.1,10.4l7.1-10.4h3.1v21.7H254L254,369.3L254,369.3z"/>
				<path d="M276,385.8v-21.7h14.4v2.8H279v6.3h9.4v2.7H279v7.1h11.4v2.7H276V385.8z"/>
				<path d="M311,376.9c0,3.9,1.5,6.3,5,6.3c3.6,0,5.1-2.6,5.1-6.3v-12.8h3.1v13c0,5-2.6,9-8.2,9s-8.2-3.6-8.2-9v-13h3.1v12.8H311z"
					/>
				<path d="M342.9,364.1h7.3c3.9,0,6.3,1.8,6.3,5.7c0,2.4-1.2,4-3,4.7c2.8,0.6,4.5,2.3,4.5,5.4c0,3.6-2.3,5.9-6.5,5.9h-8.6V364.1z
					 M346.1,373.3h3.7c2.3,0,3.7-1.1,3.7-3.2c0-2.2-1.2-3.2-3.5-3.2h-3.8v6.4H346.1z M346.1,383h5c2.5,0,3.7-1.2,3.7-3.3
					c0-2.4-1.4-3.6-4.1-3.6h-4.6V383z"/>
				<path d="M375.5,385.8v-21.7h14.4v2.8h-11.4v6.3h9.4v2.7h-9.4v7.1h11.4v2.7h-14.4V385.8z"/>
				<path d="M407.6,385.8v-21.7h3.1V383h9.9v2.7h-13V385.8z"/>
			</g>
		</g>
		<g>
			<path d="M65.1,178.1L63,193.7H0V83.5h18.4v94.6H65.1L65.1,178.1z"/>
			<path d="M83.5,83.5h18.4v110.2H83.5V83.5z"/>
			<path class="st0" d="M229.3,138.2c0,34.3-21,55.4-55.6,55.4h-40V83.5H173C207.7,83.5,229.3,103.6,229.3,138.2z M210.1,138.2
				c0-25.3-13.3-39.1-39-39.1h-19.2v79h19.7C196.2,178.1,210.1,164.2,210.1,138.2z"/>
			<path class="st0" d="M246.6,138.6c0-33.3,23.4-57,55.8-57c32.2,0,55.8,23.7,55.8,57s-23.6,57.2-55.8,57.2
				C270,195.7,246.6,171.8,246.6,138.6z M340,138.6c0-23.9-15.4-40.5-37.6-40.5s-37.6,16.6-37.6,40.5c0,24.1,15.4,40.7,37.6,40.7
				S340,162.6,340,138.6z"/>
		</g>
	</g>
</g>
</svg>
